<?xml version="1.0" encoding="iso-8859-1"?>
<!-- Generator: Adobe Illustrator 19.0.0, SVG Export Plug-In . SVG Version: 6.00 Build 0)  -->
<svg version="1.1" id="Layer_1" xmlns="http://www.w3.org/2000/svg" xmlns:xlink="http://www.w3.org/1999/xlink" x="0px" y="0px"
	 viewBox="0 0 495.2 495.2" style="enable-background:new 0 0 495.2 495.2;" xml:space="preserve">
<circle style="fill:#42A818;" cx="482.4" cy="126.719" r="12.8"/>
<path style="fill:#EFAC86;" d="M429.6,47.519c8,18.4,5.6,53.6-12.8,61.6s-50.4-0.8-54.4-31.2c-2.4-20,0-40.8,18.4-48.8
	C399.2,20.319,420.8,29.119,429.6,47.519z"/>
<path style="fill:#00233F;" d="M416.8,109.119c-18.4,8-50.4-0.8-54.4-31.2c-2.4-20,0-40.8,18.4-48.8"/>
<path style="fill:#EA711F;" d="M360.8,198.719c-16.8,16.8-44,16.8-60.8,0l0,0c-16.8-16.8-16.8-44,0-60.8l39.2-39.2
	c16.8-16.8,44-16.8,60.8,0l0,0c16.8,16.8,16.8,44,0,60.8L360.8,198.719z"/>
<path style="fill:#DD4017;" d="M400,99.519L400,99.519c16.8,16.8,16.8,44,0,60.8l-39.2,39.2c-16.8,16.8-44,16.8-60.8,0l0,0"/>
<path style="fill:#083C60;" d="M250.4,401.119c-40.8,40.8-100,47.2-132.8,14.4l-26.4-26.4c-32.8-32.8-26.4-92,14.4-132.8l134.4-97.6
	c40.8-40.8,67.2-50.4,100-17.6l26.4,26.4c32.8,32.8,23.2,59.2-17.6,100L250.4,401.119z"/>
<path style="fill:#00233F;" d="M240,158.719c40.8-40.8,67.2-50.4,100-17.6l26.4,26.4c32.8,32.8,23.2,59.2-17.6,100l-98.4,133.6
	c-40.8,40.8-100,47.2-132.8,14.4"/>
<path style="fill:#96C639;" d="M405.6,217.919c-7.2,7.2-18.4,7.2-24.8,0l-89.6-89.6c-7.2-7.2-7.2-18.4,0-24.8l0,0
	c7.2-7.2,18.4-7.2,24.8,0l89.6,89.6C412.8,200.319,412.8,211.519,405.6,217.919L405.6,217.919z"/>
<path style="fill:#42A818;" d="M291.2,103.519L291.2,103.519c7.2-7.2,18.4-7.2,24.8,0l89.6,89.6c7.2,7.2,7.2,18.4,0,24.8l0,0
	c-7.2,7.2-18.4,7.2-24.8,0"/>
<path style="fill:#195F8E;" d="M144.8,272.319c-5.6,4.8-13.6,4.8-16.8,0.8l0,0c-3.2-4-0.8-11.2,4.8-16l95.2-74.4
	c5.6-4.8,13.6-4.8,16.8-0.8l0,0c3.2,4,0.8,11.2-4.8,16L144.8,272.319z"/>
<path style="fill:#083C60;" d="M43.2,384.319l16-5.6l14.4,39.2c3.2,9.6,13.6,14.4,23.2,11.2c9.6-3.2,14.4-13.6,11.2-23.2l16-5.6
	c6.4,18.4-3.2,38.4-20.8,44.8c-18.4,6.4-38.4-3.2-44.8-20.8L43.2,384.319z"/>
<polygon style="fill:#FFC114;" points="0,280.319 72.8,341.919 57.6,400.319 3.2,375.519 "/>
<polyline style="fill:#FFCD50;" points="57.6,400.319 3.2,375.519 0,280.319 "/>
<polygon style="fill:#F9A035;" points="23.2,328.319 24.8,385.119 57.6,400.319 66.4,365.119 "/>
<polyline style="fill:#FF9A15;" points="57.6,400.319 66.4,365.119 23.2,328.319 "/>
<path style="fill:#42A818;" d="M192,471.519v-61.6c0-13.6-10.4-24-24-24s-24,11.2-24,24v61.6H192z"/>
<path style="fill:#098435;" d="M192,471.519v-61.6c0-13.6-9.6-24-23.2-24c-13.6,0-24.8,11.2-24.8,24"/>
<circle style="fill:#F9A035;" cx="169.6" cy="410.719" r="10.4"/>
<g>
	<path style="fill:#EA711F;" d="M176.8,403.519c4,4,4,11.2,0,15.2s-11.2,4-15.2,0"/>
	<path style="fill:#EA711F;" d="M480,126.719c0,11.2-39.2,20.8-86.4,20.8c-48,0-33.6-9.6-33.6-20.8s-14.4-20.8,33.6-20.8
		C440.8,105.119,480,114.719,480,126.719z"/>
</g>
<path style="fill:#DD4017;" d="M480,126.719c0,11.2-39.2,20.8-86.4,20.8c-48,0-33.6-9.6-33.6-20.8"/>
<path style="fill:#42A818;" d="M356,76.319l84-8.8c0-3.2,0-6.4-0.8-8.8c-4-23.2-26.4-38.4-49.6-34.4s-38.4,26.4-34.4,49.6
	C355.2,74.719,355.2,75.519,356,76.319z"/>
<g>
</g>
<g>
</g>
<g>
</g>
<g>
</g>
<g>
</g>
<g>
</g>
<g>
</g>
<g>
</g>
<g>
</g>
<g>
</g>
<g>
</g>
<g>
</g>
<g>
</g>
<g>
</g>
<g>
</g>
</svg>
