<?xml version="1.0" encoding="iso-8859-1"?>
<!-- Generator: Adobe Illustrator 19.0.0, SVG Export Plug-In . SVG Version: 6.00 Build 0)  -->
<svg version="1.1" id="Layer_1" xmlns="http://www.w3.org/2000/svg" xmlns:xlink="http://www.w3.org/1999/xlink" x="0px" y="0px"
	 viewBox="0 0 495.2 495.2" style="enable-background:new 0 0 495.2 495.2;" xml:space="preserve">
<ellipse style="fill:#EFAC86;" cx="249.2" cy="318.4" rx="194.4" ry="176.8"/>
<path style="fill:#DD876C;" d="M249.2,141.6c107.2,0,194.4,79.2,194.4,176.8s-87.2,176.8-194.4,176.8"/>
<path style="fill:#B51504;" d="M382,364.8c0,56-59.2,100.8-132,100.8s-132-44.8-132-100.8s59.2-30.4,132-30.4
	C322,334.4,382,309.6,382,364.8z"/>
<path style="fill:#7C0300;" d="M249.2,334.4c72.8,0,132-24.8,132,30.4s-59.2,100.8-132,100.8"/>
<g>
	<path style="fill:#DAEDEA;" d="M341.2,378.4c0,38.4-40.8,69.6-92,69.6c-50.4,0-91.2-31.2-91.2-69.6s40.8-20.8,91.2-20.8
		S341.2,340,341.2,378.4z"/>
	<circle style="fill:#DAEDEA;" cx="187.6" cy="232.8" r="41.6"/>
</g>
<path style="fill:#B8D3CE;" d="M217.2,203.2c16,16,16,42.4,0,59.2c-16,16-42.4,16-59.2,0"/>
<rect x="175.767" y="220.903" transform="matrix(-0.7068 -0.7075 0.7075 -0.7068 154.9043 528.4163)" style="fill:#00233F;" width="22.401" height="22.401"/>
<circle style="fill:#DAEDEA;" cx="310.8" cy="232.8" r="41.6"/>
<path style="fill:#B8D3CE;" d="M340.4,203.2c16,16,16,42.4,0,59.2c-16,16-42.4,16-59.2,0"/>
<rect x="299.706" y="221.067" transform="matrix(-0.7073 -0.7069 0.7069 -0.7073 366.6214 616.3318)" style="fill:#00233F;" width="22.4" height="22.4"/>
<ellipse style="fill:#D6270F;" cx="249.2" cy="307.2" rx="56.8" ry="52"/>
<path style="fill:#B51504;" d="M249.2,255.2c31.2,0,56.8,23.2,56.8,52s-25.6,52-56.8,52"/>
<ellipse style="fill:#F98478;" cx="223.6" cy="292.8" rx="20.8" ry="19.2"/>
<ellipse style="fill:#DD876C;" cx="149.2" cy="284" rx="36.8" ry="9.6"/>
<ellipse style="fill:#EFAC86;" cx="350" cy="284" rx="36.8" ry="9.6"/>
<path style="fill:#00406B;" d="M182,156.8c0-14.4-11.2-25.6-25.6-25.6c-7.2-6.4-16.8-11.2-27.2-11.2c-11.2,0-21.6,4.8-28.8,12.8
	c-6.4-4.8-14.4-8-24-8c-21.6,0-39.2,17.6-39.2,39.2c0,6.4,1.6,12,4,17.6c-13.6,6.4-23.2,20-23.2,36c0,16.8,10.4,30.4,24.8,36
	c0,1.6-0.8,3.2-0.8,4.8c0,6.4,2.4,12,6.4,16.8c-5.6,3.2-9.6,8.8-9.6,16c0,9.6,8,17.6,17.6,17.6s17.6-8,17.6-17.6
	c0-3.2-0.8-5.6-2.4-8c11.2-2.4,19.2-12,19.2-24c0,0,0,0,0-0.8c0,0,0,0,0.8,0c13.6,0,24.8-11.2,24.8-24.8c0-4-0.8-8-3.2-11.2
	c8-5.6,14.4-13.6,16.8-23.2c12.8,0,24-7.2,31.2-16.8C174,179.2,182,168.8,182,156.8z"/>
<path style="fill:#00233F;" d="M43.6,253.6c0,1.6-0.8,3.2-0.8,4.8c0,6.4,2.4,12,6.4,16.8c-5.6,3.2-9.6,8.8-9.6,16
	c0,9.6,8,17.6,17.6,17.6s17.6-8,17.6-17.6c0-3.2-0.8-5.6-2.4-8c11.2-2.4,19.2-12,19.2-24c0,0,0,0,0-0.8c0,0,0,0,0.8,0
	c13.6,0,24.8-11.2,24.8-24.8c0-4-0.8-8-3.2-11.2c8-5.6,14.4-13.6,16.8-23.2c12.8,0,24-7.2,31.2-16.8c11.2-2.4,20-12.8,20-24.8
	c0-14.4-11.2-25.6-25.6-25.6c-7.2-6.4-16.8-11.2-27.2-11.2c-11.2,0-21.6,4.8-28.8,12.8"/>
<path style="fill:#00406B;" d="M313.2,156.8c0-14.4,11.2-25.6,25.6-25.6c7.2-6.4,16.8-11.2,27.2-11.2c11.2,0,21.6,4.8,28.8,12.8
	c6.4-4.8,14.4-8,24-8c21.6,0,39.2,17.6,39.2,39.2c0,6.4-1.6,12-4,17.6c13.6,6.4,23.2,20,23.2,36c0,16.8-10.4,30.4-24.8,36
	c0,1.6,0.8,3.2,0.8,4.8c0,6.4-2.4,12-6.4,16.8c5.6,3.2,9.6,8.8,9.6,16c0,9.6-8,17.6-17.6,17.6s-17.6-8-17.6-17.6
	c0-3.2,0.8-5.6,2.4-8c-11.2-2.4-19.2-12-19.2-24c0,0,0,0,0-0.8c0,0,0,0-0.8,0c-13.6,0-24.8-11.2-24.8-24.8c0-4,0.8-8,3.2-11.2
	c-8-5.6-14.4-13.6-16.8-23.2c-12.8,0-24-7.2-31.2-16.8C321.2,179.2,313.2,168.8,313.2,156.8z"/>
<g>
	<path style="fill:#00233F;" d="M451.6,253.6c0,1.6,0.8,3.2,0.8,4.8c0,6.4-2.4,12-6.4,16.8c5.6,3.2,9.6,8.8,9.6,16
		c0,9.6-8,17.6-17.6,17.6s-17.6-8-17.6-17.6c0-3.2,0.8-5.6,2.4-8c-11.2-2.4-19.2-12-19.2-24c0,0,0,0,0-0.8c0,0,0,0-0.8,0
		c-13.6,0-24.8-11.2-24.8-24.8c0-4,0.8-8,3.2-11.2c-8-5.6-14.4-13.6-16.8-23.2c-12.8,0-24-7.2-31.2-16.8c-11.2-2.4-20-12.8-20-24.8
		c0-14.4,11.2-25.6,25.6-25.6c7.2-6.4,16.8-11.2,27.2-11.2c11.2,0,21.6,4.8,28.8,12.8"/>
</g>
<path style="fill:#A7C6C0;" d="M166,408c13.6,24,44.8,40,83.2,40s69.6-16,83.2-40H166z"/>
<polygon style="fill:#DD876C;" points="249.2,234.4 182,160 222,120.8 292.4,191.2 "/>
<polygon style="fill:#8ED322;" points="322,152 176.4,152 211.6,8 286.8,8 "/>
<polyline style="fill:#5EA304;" points="207.6,8 286.8,8 322.8,154.4 "/>
<g>
	<polygon style="fill:#357503;" points="277.2,152 221.2,152 234.8,8 263.6,8 	"/>
	<path style="fill:#357503;" d="M333.2,156c0,4-3.2,4-7.2,4H172.4c-4,0-7.2,0-7.2-4l0,0c0-4,3.2-4,7.2-4H326
		C330,152,333.2,152,333.2,156L333.2,156z"/>
	<path style="fill:#357503;" d="M302,8c0,4-1.6,8-4,8h-97.6c-2.4,0-4-4-4-8l0,0c0-4,1.6-8,4-8H298C300.4,0,302,4,302,8L302,8z"/>
</g>
<g>
</g>
<g>
</g>
<g>
</g>
<g>
</g>
<g>
</g>
<g>
</g>
<g>
</g>
<g>
</g>
<g>
</g>
<g>
</g>
<g>
</g>
<g>
</g>
<g>
</g>
<g>
</g>
<g>
</g>
</svg>
