<?xml version="1.0" encoding="iso-8859-1"?>
<!-- Generator: Adobe Illustrator 19.0.0, SVG Export Plug-In . SVG Version: 6.00 Build 0)  -->
<svg version="1.1" id="Layer_1" xmlns="http://www.w3.org/2000/svg" xmlns:xlink="http://www.w3.org/1999/xlink" x="0px" y="0px"
	 viewBox="0 0 496 496" style="enable-background:new 0 0 496 496;" xml:space="preserve">
<path style="fill:#F79E00;" d="M480,430.461v-158.4H16v158.4c0,0.8,0,1.6,0,2.4c0,20,104,36,232,36s232.8-16,232.8-36
	C480,432.061,480,431.261,480,430.461z"/>
<path style="fill:#C67B02;" d="M248,468.861c128,0,232-16,232-36c0-0.8,0-2.4,0-3.2v-157.6H16"/>
<path style="fill:#357503;" d="M480,412.861v-156.8l-464-2.4v159.2c0,0.8,0,1.6,0,2.4c0,20,104,36,232,36s232.8-16,232.8-36
	C480,414.461,480,413.661,480,412.861z"/>
<path style="fill:#275400;" d="M248,451.261c128,0,232-15.2,232-34.4c0-0.8,0-3.2,0-4v-159.2l-464,2.4"/>
<ellipse style="fill:#F79E00;" cx="248" cy="253.661" rx="232" ry="36"/>
<path style="fill:#C67B02;" d="M248,217.661c128,0,232,16,232,36s-104,36-232,36"/>
<ellipse style="fill:#FFF7D2;" cx="248" cy="245.661" rx="196.8" ry="28"/>
<path style="fill:#EADFA0;" d="M248,217.661c108.8,0,196.8,12,196.8,28c0,15.2-88,28-196.8,28"/>
<ellipse style="fill:#08B2C4;" cx="248" cy="241.661" rx="84.8" ry="12.8"/>
<path style="fill:#1491AF;" d="M248,228.061c47.2,0,84.8,5.6,84.8,12.8s-38.4,12.8-84.8,12.8"/>
<g>
	<path style="fill:#F79E00;" d="M256,432.861c0,4-3.2,7.2-7.2,7.2H248c-4,0-7.2-3.2-7.2-7.2v-129.6c0-4,3.2-7.2,7.2-7.2h0.8
		c4,0,7.2,3.2,7.2,7.2V432.861z"/>
	<path style="fill:#F79E00;" d="M128,424.861c0,4-3.2,7.2-7.2,7.2H120c-4,0-7.2-3.2-7.2-7.2v-129.6c0-4,3.2-7.2,7.2-7.2h0.8
		c4,0,7.2,3.2,7.2,7.2V424.861z"/>
	<path style="fill:#F79E00;" d="M16,400.861c0,4-3.2,7.2-7.2,7.2H7.2c-4,0-7.2-3.2-7.2-7.2v-129.6c0-4,3.2-7.2,7.2-7.2H8
		c4.8,0,8,3.2,8,7.2V400.861z"/>
</g>
<g>
	<path style="fill:#C67B02;" d="M384,295.261c0-4-3.2-7.2-7.2-7.2H376c-4,0-7.2,3.2-7.2,7.2v128.8c0,4,3.2,7.2,7.2,7.2h0.8
		c4,0,7.2-3.2,7.2-7.2V295.261z"/>
	<path style="fill:#C67B02;" d="M496,271.261c0-4-3.2-7.2-7.2-7.2H488c-4,0-7.2,3.2-7.2,7.2v128.8c0,4,3.2,7.2,7.2,7.2h0.8
		c4,0,7.2-3.2,7.2-7.2V271.261z"/>
</g>
<path style="fill:#E0A617;" d="M271.2,191.261c-4.8-6.4-12-9.6-22.4-4.8c-13.6,6.4-20.8,20-16,30.4s20,13.6,33.6,7.2
	c11.2-4.8,12.8-12,11.2-20c3.2-0.8,6.4-2.4,9.6-4l162.4-65.6c8-3.2,11.2-12.8,7.2-20s-12.8-11.2-20-7.2l-156.8,79.2
	C276.8,188.061,272.8,188.861,271.2,191.261z"/>
<path style="fill:#C67B02;" d="M456,113.661c-3.2-8-12.8-11.2-20-7.2l-156,80c-4,1.6-7.2,3.2-9.6,4.8c-4.8-6.4-12-9.6-22.4-4.8
	c-13.6,6.4-20.8,20-16,30.4"/>
<path style="fill:#E0A617;" d="M242.4,113.661c4.8-6.4,12-9.6,22.4-4.8c13.6,6.4,20.8,20,16,30.4c-4.8,10.4-20,13.6-33.6,7.2
	c-11.2-4.8-12.8-12-11.2-20c-3.2-0.8-6.4-2.4-9.6-4l-161.6-65.6c-8-3.2-11.2-12.8-7.2-20c3.2-8,12.8-11.2,20-7.2l155.2,80
	C236.8,110.461,240,112.061,242.4,113.661z"/>
<path style="fill:#C67B02;" d="M57.6,36.061c3.2-8,12.8-11.2,20-7.2l155.2,80c4,1.6,7.2,3.2,9.6,4.8c4.8-6.4,12-9.6,22.4-4.8
	c13.6,6.4,20.8,20,16,30.4"/>
<ellipse transform="matrix(-0.1087 -0.9941 0.9941 -0.1087 -112.2969 371.4875)" style="fill:#FFFFFF;" cx="110.392" cy="236.087" rx="7.2" ry="37.601"/>
<g>
</g>
<g>
</g>
<g>
</g>
<g>
</g>
<g>
</g>
<g>
</g>
<g>
</g>
<g>
</g>
<g>
</g>
<g>
</g>
<g>
</g>
<g>
</g>
<g>
</g>
<g>
</g>
<g>
</g>
</svg>
