<?xml version="1.0" encoding="iso-8859-1"?>
<!-- Generator: Adobe Illustrator 19.0.0, SVG Export Plug-In . SVG Version: 6.00 Build 0)  -->
<svg version="1.1" id="Layer_1" xmlns="http://www.w3.org/2000/svg" xmlns:xlink="http://www.w3.org/1999/xlink" x="0px" y="0px"
	 viewBox="0 0 497.421 497.421" style="enable-background:new 0 0 497.421 497.421;" xml:space="preserve">
<g>
	
		<ellipse transform="matrix(-0.0362 -0.9993 0.9993 -0.0362 138.911 245.6371)" style="fill:#8E530C;" cx="187.91" cy="55.831" rx="50.398" ry="17.599"/>
	
		<ellipse transform="matrix(-0.0362 0.9993 -0.9993 -0.0362 375.1549 -251.519)" style="fill:#8E530C;" cx="308.869" cy="55.153" rx="50.398" ry="17.599"/>
</g>
<ellipse style="fill:#A3681A;" cx="248.71" cy="264.621" rx="116.8" ry="140"/>
<path style="fill:#8E530C;" d="M248.71,124.621c64.8,0,116.8,62.4,116.8,140s-52.8,140-116.8,140"/>
<polygon style="fill:#14443E;" points="413.51,497.421 83.91,497.421 123.91,281.421 373.51,281.421 "/>
<polyline style="fill:#032B27;" points="120.71,281.421 373.51,281.421 413.51,497.421 "/>
<rect x="56.71" y="249.421" style="fill:#1A7265;" width="384" height="40"/>
<polyline style="fill:#005149;" points="440.71,249.421 440.71,289.421 56.71,289.421 "/>
<polygon style="fill:#C92B00;" points="98.31,425.421 399.91,425.421 384.71,345.421 112.71,345.421 "/>
<polyline style="fill:#A31F00;" points="399.91,425.421 384.71,345.421 112.71,345.421 "/>
<path style="fill:#DD9A43;" d="M320.71,119.021c0,55.2-32,100.8-72,100.8s-72-44.8-72-100.8c0-55.2,32-64.8,72-64.8
	S320.71,63.021,320.71,119.021z"/>
<path style="fill:#C6872C;" d="M248.71,53.421c40,0,72,9.6,72,64.8s-32,100.8-72,100.8"/>
<path style="fill:#DD9A43;" d="M172.71,3.021c36-10.4,26.4,8,31.2,25.6s22.4,28-13.6,37.6c-36,10.4-112.8,16-117.6-0.8
	C67.11,47.821,135.91,13.421,172.71,3.021z"/>
<path style="fill:#C6872C;" d="M203.91,28.621c4.8,17.6,22.4,28-13.6,37.6c-36,10.4-112.8,16-117.6-0.8"/>
<path style="fill:#DD9A43;" d="M324.71,3.021c-36-10.4-26.4,8-31.2,25.6c-4.8,17.6-22.4,28,13.6,37.6c36,10.4,112.8,16,117.6-0.8
	C430.31,47.821,361.51,13.421,324.71,3.021z"/>
<path style="fill:#C6872C;" d="M293.51,28.621c-4.8,17.6-22.4,28,13.6,37.6c36,10.4,112.8,16,117.6-0.8"/>
<g>
	<path style="fill:#032B27;" d="M216.71,131.821c-1.6,0-2.4,0-4,0.8c0.8,1.6,1.6,3.2,1.6,4.8c0,4.8-4,8.8-8.8,8.8l0,0
		c1.6,4.8,5.6,8,10.4,8c6.4,0,11.2-4.8,11.2-11.2S223.11,131.821,216.71,131.821z"/>
	<path style="fill:#032B27;" d="M279.91,131.821c-1.6,0-2.4,0-4,0.8c0.8,1.6,1.6,3.2,1.6,4.8c0,4.8-4,8.8-8.8,8.8l0,0
		c1.6,4.8,5.6,8,10.4,8c6.4,0,11.2-4.8,11.2-11.2S286.31,131.821,279.91,131.821z"/>
</g>
<g>
	<path style="fill:#1D4F49;" d="M227.91,143.021c0-6.4-4.8-11.2-11.2-11.2c-1.6,0-2.4,0-4,0.8c0.8,1.6,1.6,3.2,1.6,4.8
		c0,4.8-4,8.8-8.8,8.8"/>
	<path style="fill:#1D4F49;" d="M291.11,143.021c0-6.4-4.8-11.2-11.2-11.2c-1.6,0-2.4,0-4,0.8c0.8,1.6,1.6,3.2,1.6,4.8
		c0,4.8-4,8.8-8.8,8.8l0,0"/>
</g>
<path style="fill:#A31F00;" d="M271.91,193.421c0,12-10.4,21.6-23.2,21.6c-12.8,0-23.2-9.6-23.2-21.6s10.4-13.6,23.2-13.6
	S271.91,181.421,271.91,193.421z"/>
<path style="fill:#821500;" d="M248.71,179.821c12.8,0,23.2,2.4,23.2,13.6c0,12-10.4,21.6-23.2,21.6"/>
<path style="fill:#D35440;" d="M263.91,189.421c0,2.4-3.2,4-8,4h-13.6c-4.8,0-8-1.6-8-4l0,0c0-2.4,3.2-4,8-4h13.6
	C259.91,185.421,263.91,187.021,263.91,189.421L263.91,189.421z"/>
<g>
	<path style="fill:#EAAE68;" d="M227.11,61.421c3.2,3.2-2.4,12-13.6,20c-10.4,8-21.6,10.4-24.8,7.2c-3.2-3.2,2.4-12.8,12.8-20
		C212.71,60.621,223.91,57.421,227.11,61.421z"/>
	<path style="fill:#EAAE68;" d="M235.11,162.221c0,3.2-8.8,4.8-20,3.2c-11.2-0.8-20-4-20-7.2s8-4.8,20-3.2
		C226.31,155.821,235.11,159.021,235.11,162.221z"/>
	<path style="fill:#EAAE68;" d="M262.31,162.221c0,3.2,8.8,4.8,20,3.2c11.2-0.8,20-4,20-7.2s-8-4.8-20-3.2
		C271.11,155.821,262.31,159.021,262.31,162.221z"/>
</g>
<path style="fill:#DD9A43;" d="M176.71,266.221c0,15.2-12.8,27.2-28,27.2l0,0c-15.2,0-28-12-28-27.2v-45.6c0-15.2,12.8-27.2,28-27.2
	l0,0c15.2,0,28,12,28,27.2V266.221z"/>
<path style="fill:#C6872C;" d="M149.51,193.421L149.51,193.421c15.2,0,27.2,12,27.2,27.2v45.6c0,15.2-12,27.2-27.2,27.2l0,0"/>
<path style="fill:#DD9A43;" d="M376.71,266.221c0,15.2-12.8,27.2-28,27.2l0,0c-15.2,0-28-12-28-27.2v-45.6c0-15.2,12.8-27.2,28-27.2
	l0,0c15.2,0,28,12,28,27.2V266.221z"/>
<path style="fill:#C6872C;" d="M348.71,193.421L348.71,193.421c15.2,0,28,12,28,27.2v45.6c0,15.2-12.8,27.2-27.2,27.2l0,0"/>
<polygon style="fill:#FFBD03;" points="69.51,92.621 87.91,130.221 129.51,136.621 99.91,166.221 106.31,207.821 69.51,187.821 
	31.91,207.821 39.11,166.221 8.71,136.621 50.31,130.221 "/>
<polygon style="fill:#F79E00;" points="69.51,92.621 87.91,130.221 129.51,136.621 99.91,166.221 106.31,207.821 69.51,187.821 
	31.91,207.821 50.31,177.421 8.71,136.621 61.51,141.421 "/>
<polygon style="fill:#FFBD03;" points="427.91,92.621 447.11,130.221 488.71,136.621 458.31,166.221 465.51,207.821 427.91,187.821 
	390.31,207.821 397.51,166.221 367.91,136.621 409.51,130.221 "/>
<polygon style="fill:#F79E00;" points="427.91,92.621 447.11,130.221 488.71,136.621 458.31,166.221 465.51,207.821 427.91,187.821 
	390.31,207.821 408.71,177.421 367.91,136.621 419.91,141.421 "/>
<g>
</g>
<g>
</g>
<g>
</g>
<g>
</g>
<g>
</g>
<g>
</g>
<g>
</g>
<g>
</g>
<g>
</g>
<g>
</g>
<g>
</g>
<g>
</g>
<g>
</g>
<g>
</g>
<g>
</g>
</svg>
