<?xml version="1.0" encoding="iso-8859-1"?>
<!-- Generator: Adobe Illustrator 19.0.0, SVG Export Plug-In . SVG Version: 6.00 Build 0)  -->
<svg version="1.1" id="Layer_1" xmlns="http://www.w3.org/2000/svg" xmlns:xlink="http://www.w3.org/1999/xlink" x="0px" y="0px"
	 viewBox="0 0 494.91 494.91" style="enable-background:new 0 0 494.91 494.91;" xml:space="preserve">
<path style="fill:#00233F;" d="M382.655,179.455c-5.6,0-11.2,1.6-16,4c-16.8-11.2-49.6-12-117.6-12s-100,0-116.8,12
	c-4.8-2.4-10.4-4-16-4c-24.8,0-44.8,27.2-44.8,60c0,33.6,20,60,44.8,60c0.8,0,0,0,0,0c5.6,41.6,26.4,81.6,42.4,111.2v68.8h176v-68.8
	c24-29.6,39.2-69.6,44.8-111.2c0.8,0,1.6,0,2.4,0c24.8,0,44.8-27.2,44.8-60C427.455,206.655,407.455,179.455,382.655,179.455z"/>
<path style="fill:#EFAC86;" d="M150.655,252.255c-8,24.8-44,35.2-81.6,24c-37.6-12-61.6-40.8-53.6-65.6s44-35.2,81.6-24
	C133.855,197.855,157.855,227.455,150.655,252.255z"/>
<g>
	<path style="fill:#EDC4A6;" d="M20.255,250.655c-18.4-4-25.6-18.4-16-56c8.8-37.6,51.2-128,68.8-123.2c17.6,4,5.6,101.6-4,139.2
		C59.455,247.455,37.855,254.655,20.255,250.655z"/>
	<path style="fill:#EDC4A6;" d="M119.455,55.455c0,22.4-17.6,40-40,40h-8c-22.4,0-40-17.6-40-40l0,0c0-22.4,17.6-40,40-40h8
		C101.855,15.455,119.455,33.055,119.455,55.455L119.455,55.455z"/>
</g>
<g>
	<path style="fill:#EFAC86;" d="M71.455,15.455h10.4c23.2,0,41.6,16.8,41.6,40l0,0c0,23.2-18.4,40-41.6,40h-10.4"/>
	<path style="fill:#EFAC86;" d="M344.255,252.255c8,24.8,44,35.2,81.6,24s60.8-40.8,53.6-65.6c-8-24.8-44-35.2-81.6-24
		C361.055,197.855,337.055,227.455,344.255,252.255z"/>
</g>
<g>
	<path style="fill:#EDC4A6;" d="M474.655,250.655c18.4-4,25.6-18.4,16-56c-8.8-37.6-51.2-128-68.8-123.2c-17.6,4-5.6,101.6,4,139.2
		C435.455,247.455,457.055,254.655,474.655,250.655z"/>
	<path style="fill:#EDC4A6;" d="M463.455,55.455c0-22.4-17.6-40-40-40h-8c-22.4,0-40,17.6-40,40l0,0c0,22.4,17.6,40,40,40h8
		C445.855,95.455,463.455,77.855,463.455,55.455L463.455,55.455z"/>
</g>
<path style="fill:#EFAC86;" d="M415.455,95.455h5.6c23.2,0,41.6-16.8,41.6-40l0,0c0-23.2-18.4-40-41.6-40h-5.6"/>
<ellipse style="fill:#E03427;" cx="249.855" cy="194.655" rx="58.4" ry="71.2"/>
<path style="fill:#B51504;" d="M249.855,123.455c32,0,58.4,32,58.4,71.2s-25.6,71.2-58.4,71.2"/>
<path style="fill:#EDC4A6;" d="M315.455,100.255c0,42.4-29.6,92.8-65.6,92.8s-65.6-50.4-65.6-92.8s28.8-60.8,65.6-60.8
	C285.855,39.455,315.455,57.855,315.455,100.255z"/>
<path style="fill:#EFAC86;" d="M249.855,39.455c36,0,65.6,18.4,65.6,60.8s-29.6,92.8-65.6,92.8"/>
<g>
	<path style="fill:#00233F;" d="M310.655,149.055c-28.8,4.8-55.2-4-60.8-20.8c0,0,0,0,0,0.8c0,0,0,0,0-0.8
		c-6.4,16-32,25.6-60.8,20.8c-19.2-3.2-34.4-11.2-43.2-21.6c3.2,15.2,20,31.2,44,39.2c25.6,8.8,50.4,4.8,60.8-7.2
		c10.4,12,35.2,15.2,60.8,7.2c24-8,40.8-24,44-39.2C345.855,137.855,329.855,145.855,310.655,149.055z"/>
	<ellipse style="fill:#00233F;" cx="220.255" cy="101.055" rx="12.8" ry="4"/>
	<ellipse style="fill:#00233F;" cx="278.655" cy="101.055" rx="12.8" ry="4"/>
	<path style="fill:#00233F;" d="M317.055,53.855c0,18.4-30.4,6.4-67.2,6.4s-67.2,12-67.2-6.4s30.4-33.6,67.2-33.6
		C286.655,21.055,317.055,35.455,317.055,53.855z"/>
</g>
<path style="fill:#E03427;" d="M379.455,303.455h-262.4c1.6,16,4.8,24,8,32h248C376.255,327.455,377.055,319.455,379.455,303.455z"
	/>
<path style="fill:#B51504;" d="M373.055,335.455c3.2-10.4,4.8-16,6.4-32h-260"/>
<path style="fill:#E03427;" d="M145.055,383.455c4,8.8,9.6,18.4,14.4,27.2v4.8h176v-4.8c8-8.8,12.8-19.2,18.4-27.2H145.055z"/>
<path style="fill:#B51504;" d="M335.455,415.455v-4.8c8-8.8,12.8-19.2,18.4-27.2h-202.4"/>
<rect x="159.455" y="455.455" style="fill:#E03427;" width="176" height="24"/>
<polyline style="fill:#B51504;" points="335.455,479.455 335.455,455.455 159.455,455.455 "/>
<g>
	
		<ellipse transform="matrix(-0.3898 -0.9209 0.9209 -0.3898 97.6585 500.677)" style="fill:#F26464;" cx="214.707" cy="217.984" rx="28" ry="9.6"/>
	<circle style="fill:#F26464;" cx="192.255" cy="277.055" r="12"/>
</g>
<path style="fill:#E03427;" d="M201.055,268.255c4.8,4.8,4.8,12.8,0,16.8c-4.8,4.8-12.8,4.8-16.8,0"/>
<g>
</g>
<g>
</g>
<g>
</g>
<g>
</g>
<g>
</g>
<g>
</g>
<g>
</g>
<g>
</g>
<g>
</g>
<g>
</g>
<g>
</g>
<g>
</g>
<g>
</g>
<g>
</g>
<g>
</g>
</svg>
