<?xml version="1.0" encoding="iso-8859-1"?>
<!-- Generator: Adobe Illustrator 19.0.0, SVG Export Plug-In . SVG Version: 6.00 Build 0)  -->
<svg version="1.1" id="Layer_1" xmlns="http://www.w3.org/2000/svg" xmlns:xlink="http://www.w3.org/1999/xlink" x="0px" y="0px"
	 viewBox="0 0 500.87 500.87" style="enable-background:new 0 0 500.87 500.87;" xml:space="preserve">
<polygon style="fill:#74C8D1;" points="467.478,173.317 254.41,76.323 42.137,173.317 "/>
<polygon style="fill:#60A9BA;" points="467.478,173.317 254.41,131.975 42.137,173.317 "/>
<polygon style="fill:#028399;" points="381.615,173.317 254.41,76.323 128,173.317 "/>
<polygon style="fill:#006884;" points="381.615,173.317 254.41,136.745 128,173.317 "/>
<polygon style="fill:#74C8D1;" points="296.547,173.317 254.41,76.323 212.273,173.317 "/>
<polygon style="fill:#60A9BA;" points="296.547,173.317 254.41,143.106 212.273,173.317 "/>
<polygon style="fill:#028399;" points="498.484,478.609 9.54,475.429 50.087,236.919 459.528,236.919 "/>
<polyline style="fill:#006884;" points="47.702,236.919 459.528,236.919 498.484,480.994 "/>
<polygon style="fill:#9E1600;" points="426.137,475.429 82.683,475.429 111.304,236.919 398.311,236.919 "/>
<polygon style="fill:#F2CF3B;" points="416.596,475.429 93.019,475.429 119.255,236.919 389.565,236.919 "/>
<polyline style="fill:#E29524;" points="119.255,236.919 389.565,236.919 417.391,480.994 "/>
<polygon style="fill:#005366;" points="328.348,475.429 181.267,475.429 193.193,236.919 316.422,236.919 "/>
<g>
	<polyline style="fill:#022838;" points="190.807,236.919 316.422,236.919 329.143,480.994 	"/>
	<polygon style="fill:#022838;" points="321.988,356.174 316.422,236.919 193.193,236.919 187.627,356.174 	"/>
</g>
<path style="fill:#028399;" d="M39.752,173.317v96.994c0,13.516,10.335,24.646,23.851,24.646s23.851-11.13,23.851-24.646v-96.994
	H39.752z"/>
<path style="fill:#74C8D1;" d="M87.453,173.317v96.994c0,13.516,10.335,24.646,23.851,24.646s23.851-11.13,23.851-24.646v-96.994
	H87.453z"/>
<path style="fill:#028399;" d="M135.155,173.317v96.994c0,13.516,10.335,24.646,23.851,24.646s23.851-11.13,23.851-24.646v-96.994
	H135.155z"/>
<path style="fill:#74C8D1;" d="M182.857,173.317v96.994c0,13.516,10.335,24.646,23.851,24.646s23.851-11.13,23.851-24.646v-96.994
	H182.857z"/>
<path style="fill:#028399;" d="M230.559,173.317v96.994c0,13.516,10.335,24.646,23.851,24.646s23.851-11.13,23.851-24.646v-96.994
	H230.559z"/>
<path style="fill:#74C8D1;" d="M278.261,173.317v96.994c0,13.516,10.335,24.646,23.851,24.646s23.851-11.13,23.851-24.646v-96.994
	H278.261z"/>
<path style="fill:#028399;" d="M325.963,173.317v96.994c0,13.516,10.335,24.646,23.851,24.646s23.851-11.13,23.851-24.646v-96.994
	H325.963z"/>
<path style="fill:#74C8D1;" d="M373.665,173.317v96.994c0,13.516,10.335,24.646,23.851,24.646s23.851-11.13,23.851-24.646v-96.994
	H373.665z"/>
<path style="fill:#028399;" d="M421.366,173.317v96.994c0,13.516,10.335,24.646,23.851,24.646s23.851-11.13,23.851-24.646v-96.994
	H421.366z"/>
<polyline style="fill:#006884;" points="87.453,268.72 87.453,173.317 39.752,173.317 "/>
<polyline style="fill:#60A9BA;" points="135.155,268.72 135.155,173.317 87.453,173.317 "/>
<polyline style="fill:#006884;" points="182.857,268.72 182.857,173.317 135.155,173.317 "/>
<polyline style="fill:#60A9BA;" points="230.559,268.72 230.559,173.317 182.857,173.317 "/>
<polyline style="fill:#006884;" points="278.261,268.72 278.261,173.317 230.559,173.317 "/>
<polyline style="fill:#60A9BA;" points="325.963,268.72 325.963,173.317 278.261,173.317 "/>
<polyline style="fill:#006884;" points="373.665,268.72 373.665,173.317 325.963,173.317 "/>
<polyline style="fill:#60A9BA;" points="421.366,268.72 421.366,173.317 373.665,173.317 "/>
<polyline style="fill:#006884;" points="469.068,268.72 469.068,173.317 421.366,173.317 "/>
<path style="fill:#022838;" d="M500.87,483.379c0,4.77-3.18,7.95-7.95,7.95H7.95c-4.77,0-7.95-3.18-7.95-7.95l0,0
	c0-4.77,3.18-7.95,7.95-7.95h484.969C497.689,475.429,500.87,478.609,500.87,483.379L500.87,483.379z"/>
<polygon style="fill:#FFFFCC;" points="120.05,306.087 101.764,473.838 145.491,340.273 "/>
<polygon style="fill:#60A9BA;" points="46.112,302.907 18.286,469.068 69.168,337.888 "/>
<path style="fill:#022838;" d="M262.36,77.913V22.261c0-2.385-5.565-4.77-7.95-4.77s-7.95,2.385-7.95,4.77v55.652H262.36z"/>
<circle style="fill:#C92B00;" cx="254.41" cy="20.671" r="11.13"/>
<path style="fill:#9E1600;" d="M262.36,12.72c4.77,4.77,4.77,11.925,0,15.901c-4.77,4.77-11.925,4.77-15.901,0"/>
<ellipse transform="matrix(-0.7067 -0.7075 0.7075 -0.7067 415.6203 201.4223)" style="fill:#E28133;" cx="249.559" cy="14.564" rx="1.59" ry="4.77"/>
<path style="fill:#9E1600;" d="M272.696,75.528c0,2.385-2.385,3.975-3.975,3.975h-27.031c-2.385,0-4.77-2.385-4.77-3.975l0,0
	c0-2.385,2.385-5.565,3.975-5.565h27.031C270.311,69.963,272.696,73.938,272.696,75.528L272.696,75.528z"/>
<path style="fill:#770B00;" d="M236.919,75.528c0-2.385,1.59-5.565,3.975-5.565h27.031c2.385,0,3.975,3.18,3.975,5.565l0,0
	c0,2.385-1.59,3.975-3.975,3.975"/>
<polygon style="fill:#9E1600;" points="367.304,69.963 382.41,54.062 286.211,54.062 286.211,85.863 382.41,85.863 "/>
<polyline style="fill:#770B00;" points="380.82,83.478 366.509,69.168 382.41,54.062 286.211,54.062 "/>
<rect x="262.36" y="30.211" style="fill:#C92B00;" width="63.602" height="31.801"/>
<polyline style="fill:#9E1600;" points="262.36,30.211 325.963,30.211 325.963,62.012 "/>
<g>
</g>
<g>
</g>
<g>
</g>
<g>
</g>
<g>
</g>
<g>
</g>
<g>
</g>
<g>
</g>
<g>
</g>
<g>
</g>
<g>
</g>
<g>
</g>
<g>
</g>
<g>
</g>
<g>
</g>
</svg>
