<?xml version="1.0" encoding="iso-8859-1"?>
<!-- Generator: Adobe Illustrator 19.0.0, SVG Export Plug-In . SVG Version: 6.00 Build 0)  -->
<svg version="1.1" id="Layer_1" xmlns="http://www.w3.org/2000/svg" xmlns:xlink="http://www.w3.org/1999/xlink" x="0px" y="0px"
	 viewBox="0 0 496 496" style="enable-background:new 0 0 496 496;" xml:space="preserve">
<path style="fill:#8E1902;" d="M417.6,104H78.4C67.2,152,40,175.2,0,181.6v132.8c40,6.4,67.2,29.6,78.4,77.6h338.4
	c11.2-48,38.4-71.2,78.4-77.6V181.6C456,175.2,428.8,152,417.6,104z"/>
<path style="fill:#510600;" d="M418.4,389.6c11.2-43.2,37.6-68.8,77.6-75.2V181.6c-40-6.4-67.2-29.6-78.4-77.6H80"/>
<path style="fill:#C92B00;" d="M387.2,136H108.8C99.2,168,72,188,48,193.6v109.6c24,5.6,51.2,25.6,60.8,57.6h278.4
	c9.6-32,36.8-52,60.8-57.6V193.6C424,188,396.8,168,387.2,136z"/>
<path style="fill:#A31700;" d="M387.2,356.8C396.8,328,424,308,448,302.4V193.6c-24-5.6-51.2-25.6-60.8-57.6H112"/>
<g>
	<path style="fill:#F2CF3B;" d="M116,201.6l-5.6,5.6c0,24.8,0,50.4,0,75.2l5.6,5.6c2.4,0,8.8,0,11.2,0l5.6-5.6c0-4.8,0-10.4,0-15.2
		c0.8,0,1.6,0,2.4,0c4,0,7.2-1.6,8.8-4c-0.8,0.8-1.6,0.8-3.2,0.8c-4,0-7.2-3.2-7.2-7.2c0-4,3.2-6.4,7.2-6.4c5.6,0,7.2,5.6,7.2,12
		c0,3.2,0,6.4,0,9.6c0,4.8,1.6,8,4.8,10.4L144,292l9.6,9.6c-20,0-43.2,0-62.4,0l9.6-9.6l-8.8-9.6c3.2-1.6,4.8-5.6,4.8-10.4v-22.4
		l-5.6-4l5.6-4v-22.4c0-4.8-1.6-8.8-4.8-10.4l8.8-9.6l-9.6-9.6c20,0,42.4,0,62.4,0l-9.6,9.6l8,8.8c-4,2.4-4.8,6.4-4.8,14.4
		c-5.6,0-8.8,0.8-10.4,4c0.8-0.8,2.4-0.8,3.2-0.8c4,0,6.4,3.2,6.4,6.4c0,4-3.2,7.2-6.4,7.2c-4,0-7.2-3.2-7.2-7.2v-24.8l-5.6-5.6
		 M95.2,304l1.6,2.4C96,306.4,95.2,304.8,95.2,304z M99.2,306.4h-0.8l-2.4-3.2h0.8L99.2,306.4z M100,306.4l-2.4-3.2h0.8l2.4,3.2H100
		z M103.2,306.4h-0.8l-2.4-3.2h0.8L103.2,306.4z M104,306.4l-2.4-3.2h0.8l2.4,3.2H104z M107.2,306.4h-0.8l-2.4-3.2h0.8L107.2,306.4z
		 M108,306.4l-2.4-3.2h0.8l2.4,3.2H108z M111.2,306.4h-0.8l-2.4-3.2h0.8L111.2,306.4z M112,306.4l-2.4-3.2h0.8l2.4,3.2H112z
		 M114.4,306.4h-0.8l-2.4-3.2h0.8L114.4,306.4z M120,219.2v1.6l-8-11.2V208L120,219.2z M120,224l-8-11.2v-1.6l8,11.2V224z
		 M120,226.4l-8-11.2v-1.6l8,11.2V226.4z M120,229.6l-8-11.2v-1.6l8,11.2V229.6z M120,232l-8-11.2v-1.6l8,11.2V232z M120,233.6v1.6
		l-8-11.2v-1.6L120,233.6z M120,236v1.6l-8-11.2v-1.6L120,236z M120,239.2v1.6l-8-11.2V228L120,239.2z M120,241.6v1.6l-8-11.2v-1.6
		L120,241.6z M120,245.6l-8-11.2v-1.6l8,11.2V245.6z M120,248.8l-8-11.2V236l8,11.2V248.8z M120,251.2l-8-11.2v-1.6l8,11.2V251.2z
		 M120,254.4l-8-11.2v-1.6l8,11.2V254.4z M120,256v1.6l-8-11.2v-1.6L120,256z M120,258.4v1.6l-8-11.2V248L120,258.4z M120,260.8v1.6
		l-8-11.2v-1.6L120,260.8z M120,264v1.6l-8-11.2v-1.6L120,264z M120,268l-8-11.2V256l8,11.2V268z M120,271.2l-8-11.2v-1.6l8,11.2
		V271.2z M120,273.6l-8-11.2v-1.6l8,11.2V273.6z M120,276.8l-8-11.2V264l8,11.2V276.8z M120,277.6v1.6l-8-11.2v-1.6L120,277.6z
		 M120,280.8v1.6l-8-11.2v-1.6L120,280.8z M120,283.2v1.6l-8-11.2V272L120,283.2z M120,286.4h-0.8l-7.2-9.6v-1.6L120,286.4z
		 M116.8,286.4l-4.8-7.2v-1.6l5.6,8h-0.8V286.4z M112,281.6v-0.8l2.4,3.2L112,281.6z M120,216.8v1.6l-7.2-10.4l0.8-0.8L120,216.8z
		 M116,306.4l-2.4-3.2h0.8l2.4,3.2H116z M120,213.6v1.6l-5.6-8.8l0.8-0.8L120,213.6z M120,211.2v0.8l-4.8-6.4l0.8-0.8L120,211.2z
		 M118.4,306.4h-0.8l-2.4-3.2h0.8L118.4,306.4z M121.6,210.4L121.6,210.4l-4.8-5.6l0.8-0.8L121.6,210.4z M120,306.4l-2.4-3.2h0.8
		l2.4,3.2H120z M121.6,209.6l-4-5.6h0.8L121.6,209.6L121.6,209.6z M122.4,306.4h-0.8l-2.4-3.2h0.8L122.4,306.4z M123.2,208.8
		L120,204h0.8L123.2,208.8L123.2,208.8z M120.8,285.6l0.8,0.8L120.8,285.6L120.8,285.6z M123.2,306.4l-2.4-3.2h0.8l2.4,3.2H123.2z
		 M124.8,207.2L124.8,207.2l-3.2-3.2h0.8L124.8,207.2z M126.4,306.4L126.4,306.4l-3.2-3.2h0.8L126.4,306.4z M126.4,207.2L124,204
		h0.8l2.4,3.2H126.4z M127.2,306.4l-2.4-3.2h0.8l2.4,3.2H127.2z M128.8,207.2H128l-2.4-3.2h0.8l1.6,1.6L128.8,207.2z M130.4,306.4
		h-0.8l-2.4-3.2h0.8L130.4,306.4z M131.2,306.4l-2.4-3.2h0.8l2.4,3.2H131.2z M134.4,306.4L134.4,306.4l-3.2-3.2h0.8L134.4,306.4z
		 M135.2,306.4l-2.4-3.2h0.8l2.4,3.2H135.2z M138.4,306.4h-0.8l-2.4-3.2h0.8L138.4,306.4z M139.2,306.4l-2.4-3.2h0.8l2.4,3.2H139.2z
		 M141.6,306.4h-0.8l-2.4-3.2h0.8L141.6,306.4z M140,241.6C140.8,241.6,140.8,241.6,140,241.6l1.6,1.6
		C141.6,242.4,140.8,242.4,140,241.6z M143.2,306.4l-2.4-3.2h0.8l2.4,3.2H143.2z M144.8,244.8c-0.8,0-0.8,0-1.6-0.8l-1.6-2.4h0.8
		L144.8,244.8z M145.6,306.4h-0.8l-2.4-3.2h1.6L145.6,306.4z M146.4,244.8l-2.4-4c0,0,0,0,0.8,0l3.2,4.8
		C147.2,244.8,146.4,244.8,146.4,244.8z M144.8,224.8L144.8,224.8L144.8,224.8L144.8,224.8z M147.2,306.4l-2.4-3.2h0.8l2.4,3.2
		H147.2z M148,244.8l-3.2-4.8c0,0,0.8,0,0.8-0.8l4,4.8C148.8,244.8,148.8,244.8,148,244.8z M156,239.2l-10.4-14.4c0.8,0,0.8,0,0.8,0
		l9.6,13.6C156,238.4,156,238.4,156,239.2z M150.4,244h-0.8l-4-5.6c0,0,0,0,0.8-0.8L150.4,244z M149.6,306.4h-0.8l-2.4-3.2h0.8
		L149.6,306.4z M146.4,292L146.4,292l1.6,0.8L146.4,292z M152.8,204.8l-4-4.8l-1.6-2.4l0.8-0.8L152.8,204.8z M152,243.2
		C152,243.2,152,244,152,243.2l-4.8-5.6c0,0,0,0,0.8-0.8L152,243.2z M148,252l8.8,12.8v1.6l-8.8-12c0-0.8-0.8-1.6-1.6-2.4
		C148,252,148,252,148,252z M154.4,299.2l-3.2-3.2l-4-5.6l0.8-0.8L154.4,299.2z M156.8,236.8l-8.8-12h0.8l8,11.2V236.8z
		 M153.6,242.4C153.6,242.4,152.8,242.4,153.6,242.4L148,236v-0.8L153.6,242.4z M160,214.4l-12-16.8l0.8-0.8L160,214.4
		C160,213.6,160,213.6,160,214.4z M155.2,240L155.2,240l-6.4-8c0-0.8,0-0.8,0-1.6L155.2,240z M152,306.4h-0.8l-2.4-3.2h0.8
		L152,306.4z M154.4,241.6L154.4,241.6l-5.6-7.2v-0.8L154.4,241.6z M161.6,306.4C160.8,306.4,160.8,306.4,161.6,306.4l-12.8-16.8
		l0.8-0.8L161.6,306.4z M152,228c0.8,0,0.8,0.8,1.6,0.8l2.4,3.2c0,0.8,0.8,1.6,0.8,2.4l-8-10.4c0,0,0-0.8,0.8-0.8L152,228
		C152.8,228,152.8,228,152,228z M161.6,212.8l-12-16.8l0.8-0.8L161.6,212.8L161.6,212.8z M150.4,252l7.2,9.6v1.6l-8-11.2
		C149.6,252,150.4,252,150.4,252z M156,228l-6.4-8.8v-0.8v-0.8L156,228C156,227.2,156,228,156,228z M153.6,228l-4-6.4V220l5.6,7.2
		C154.4,228,154.4,228,153.6,228z M157.6,268.8l-8-11.2c0-0.8,0-0.8,0-1.6l8,11.2V268.8z M157.6,271.2l-8-11.2v-1.6l8,11.2V271.2z
		 M157.6,274.4l-8-11.2v-1.6l8,11.2V274.4z M157.6,277.6l-8-11.2v-1.6l8,11.2C157.6,276,157.6,276.8,157.6,277.6z M157.6,279.2
		c0.8,1.6,1.6,3.2,3.2,4l1.6,2.4v0.8l-12-17.6v-1.6L157.6,279.2z M161.6,287.2L161.6,287.2l-12-15.2v-1.6L161.6,287.2z M160,288.8
		L160,288.8l-10.4-13.6c0-0.8,0-0.8,0-1.6L160,288.8z M157.6,225.6v0.8l-8-10.4c0-0.8,0-0.8,0-0.8L157.6,225.6z M154.4,295.2
		l2.4,2.4l5.6,8c0,0,0,0.8-0.8,0.8l-12-17.6l0.8-0.8L154.4,295.2L154.4,295.2z M157.6,223.2v0.8l-7.2-10.4v-0.8L157.6,223.2z
		 M155.2,201.6l-4.8-6.4l0.8-0.8L155.2,201.6L155.2,201.6z M153.6,306.4h-0.8l-2.4-3.2h0.8L153.6,306.4z M150.4,277.6l1.6,2.4
		C151.2,278.4,151.2,278.4,150.4,277.6z M157.6,220c0,0.8,0,0.8,0,1.6l-6.4-8.8c0,0,0-0.8,0.8-0.8L157.6,220z M155.2,293.6l-4.8-6.4
		l0.8-0.8L155.2,293.6L155.2,293.6z M156,200l-4.8-6.4l0.8-0.8L156,200L156,200z M153.6,253.6l4,5.6c0,0.8,0,0.8,0,1.6l-5.6-8
		C152,252.8,152.8,252.8,153.6,253.6z M156.8,292.8l-4.8-6.4l0.8-0.8L156.8,292.8L156.8,292.8z M157.6,217.6v0.8l-5.6-8
		c0,0,0,0,0.8-0.8L157.6,217.6z M156,306.4h-0.8l-2.4-3.2l0,0c0,0,0,0,0.8,0L156,306.4z M156.8,199.2l-4-6.4l0.8-0.8L156.8,199.2
		L156.8,199.2z M157.6,291.2l-4.8-6.4l0.8-0.8L157.6,291.2L157.6,291.2z M157.6,216.8l-4.8-7.2c0,0,0.8,0,0.8-0.8L157.6,216.8
		C158.4,216,158.4,216.8,157.6,216.8z M158.4,197.6l-4.8-6.4l0.8-0.8L158.4,197.6L158.4,197.6z M158.4,290.4l-4.8-6.4v-0.8
		L158.4,290.4L158.4,290.4z M157.6,306.4h-0.8l-2.4-3.2l0.8-0.8L157.6,306.4z M159.2,215.2l-4.8-6.4v-1.6L159.2,215.2L159.2,215.2z
		 M156,190.4l4,6.4l-0.8,0.8l-4.8-6.4L156,190.4L156,190.4z M159.2,306.4h-0.8l-3.2-4.8v-0.8V300L159.2,306.4z M157.6,190.4l3.2,4.8
		L160,196l-4-5.6H157.6z M158.4,205.6l3.2,4c0.8,0.8,0.8,0.8,0.8,2.4L158.4,205.6z M160,190.4l2.4,4l0,0l0,0l-3.2-4.8h0.8V190.4z
		 M160,300.8l1.6,1.6c0.8,0.8,0.8,1.6,0.8,1.6L160,300.8z M160.8,190.4c0.8,0,0.8,0,1.6,0.8l0.8,0.8v0.8v0.8L160.8,190.4z"/>
	<path style="fill:#F2CF3B;" d="M175.2,198.4l-9.6-9.6c22.4,0,44,0,66.4,0l-9.6,9.6l9.6,9.6c-3.2,1.6-4.8,5.6-4.8,10.4v4.8l-8.8,8
		l8.8,8.8c0,17.6,0,34.4,0,52l9.6,9.6c-11.2,0-21.6,0-32.8,0l9.6-9.6c0-16,0-32,0-47.2l-5.6-5.6l-17.6,15.2c0,12.8,0,25.6,0,38.4
		l9.6,9.6c-11.2,0-21.6,0-32.8,0l9.6-9.6c0-14.4,0-28,0-42.4l-5.6-4l5.6-4v-44H175.2z M171.2,304.8C171.2,304,171.2,304,171.2,304.8
		l1.6,2.4C172,306.4,171.2,305.6,171.2,304.8z M175.2,306.4h-0.8l-2.4-3.2h0.8L175.2,306.4z M176,306.4l-2.4-3.2h0.8l2.4,3.2H176z
		 M179.2,306.4h-0.8l-2.4-3.2h0.8L179.2,306.4z M180,306.4l-2.4-3.2h0.8l2.4,3.2H180z M183.2,306.4h-0.8l-2.4-3.2h0.8L183.2,306.4z
		 M184,306.4l-2.4-3.2h0.8l2.4,3.2H184z M187.2,306.4h-0.8l-2.4-3.2h0.8L187.2,306.4z M188,306.4l-2.4-3.2h0.8l2.4,3.2H188z
		 M190.4,306.4h-0.8l-2.4-3.2h0.8L190.4,306.4z M192,306.4l-2.4-3.2h0.8l2.4,3.2H192z M212.8,216.8v-9.6l-6.4-5.6h-17.6v35.2
		L212.8,216.8z M194.4,306.4h-0.8l-2.4-3.2h0.8L194.4,306.4z M192.8,204l7.2,9.6v1.6l-8-11.2L192.8,204L192.8,204z M200,216.8v1.6
		l-8-11.2v-1.6L200,216.8z M200,219.2v1.6l-8-11.2V208L200,219.2z M200,222.4v1.6l-8-11.2v-1.6L200,222.4z M200,224.8L200,224.8
		L200,224.8l-8-9.6v-1.6L200,224.8z M192,216.8l6.4,9.6l-0.8,0.8l-5.6-8.8V216.8z M197.6,227.2L197.6,227.2l-5.6-6.4v-1.6
		L197.6,227.2z M196,228.8L196,228.8l-4-4.8v-1.6L196,228.8z M195.2,229.6L195.2,229.6l-3.2-3.2v-1.6L195.2,229.6z M193.6,230.4
		L193.6,230.4l-1.6-0.8V228L193.6,230.4z M192,231.2L192,231.2v0.8V231.2z M192,256l8,11.2v1.6l-8-11.2V256z M192,258.4l8,11.2v1.6
		l-8-11.2V258.4z M200,272v1.6l-8-11.2v-1.6L200,272z M200,275.2v1.6l-8-11.2V264L200,275.2z M200,277.6v1.6l-8-11.2v-1.6L200,277.6
		z M200,280.8v1.6l-8-11.2v-1.6L200,280.8z M192,272.8l8,11.2v1.6l-8-11.2V272.8z M192,275.2l8,11.2v1.6l-8-11.2V275.2z M192,278.4
		l8,11.2v1.6l-8-11.2V278.4z M192,280.8l8,11.2v1.6l-8-11.2V280.8z M192,284.8v-1.6l10.4,15.2l-0.8,0.8L192,284.8z M199.2,297.6
		L192,288v-1.6l9.6,13.6l0,0c0,0,0-0.8-0.8-0.8L199.2,297.6z M192.8,291.2L192.8,291.2l-0.8-1.6l3.2,4.8L192.8,291.2z M192.8,253.6
		L200,264v1.6L192.8,253.6L192.8,253.6z M194.4,252.8l5.6,8v1.6L194.4,252.8L194.4,252.8z M196,306.4l-2.4-3.2h0.8l2.4,3.2H196z
		 M195.2,204l4.8,7.2v1.6l-5.6-8h0.8V204z M200,258.4v1.6l-4.8-7.2l0.8-0.8L200,258.4z M198.4,306.4h-0.8l-2.4-3.2h0.8L198.4,306.4z
		 M196.8,204l3.2,4v1.6l-4-5.6H196.8z M200.8,256.8L200.8,256.8l-4.8-5.6l0.8-0.8L200.8,256.8z M201.6,256L201.6,256l-4.8-5.6
		l0.8-0.8L201.6,256z M199.2,306.4l-2.4-3.2h0.8l2.4,3.2H199.2z M199.2,204l2.4,3.2H200l-2.4-3.2H199.2z M203.2,255.2L203.2,255.2
		l-4.8-5.6l0.8-0.8L203.2,255.2z M202.4,306.4h-0.8l-2.4-3.2h0.8L202.4,306.4z M204,253.6L204,253.6l-4.8-5.6h0.8L204,253.6z
		 M203.2,207.2h-0.8L200,204h0.8L203.2,207.2z M201.6,246.4l4,6.4l-0.8,0.8L201.6,246.4L201.6,246.4z M203.2,306.4l-2.4-4
		c0,0,0,0,0.8-0.8l3.2,4.8H203.2z M202.4,204l2.4,3.2H204l-2.4-3.2H202.4z M203.2,298.4l-1.6-2.4L203.2,298.4L203.2,298.4z
		 M202.4,245.6l4,6.4l-0.8,0.8L202.4,245.6L202.4,245.6z M206.4,306.4h-0.8l-2.4-3.2h0.8l0,0L206.4,306.4z M204,244.8l4,6.4
		l-0.8,0.8L204,244.8L204,244.8z M207.2,207.2h-0.8L204,204h0.8L207.2,207.2z M204.8,243.2l4,6.4l-0.8,0.8L204.8,243.2L204.8,243.2z
		 M207.2,306.4l-2.4-3.2h0.8L207.2,306.4C208,306.4,207.2,306.4,207.2,306.4z M207.2,205.6l0.8,1.6l0,0l-2.4-3.2h0.8L207.2,205.6z
		 M209.6,248.8l-4-6.4l0.8-0.8L209.6,248.8L209.6,248.8z M206.4,241.6L206.4,241.6l2.4,2.4l1.6,2.4v1.6L206.4,241.6z M209.6,306.4
		c-0.8,0-0.8-0.8-0.8-1.6v0.8l-1.6-2.4h0.8L209.6,306.4z M211.2,306.4l-2.4-3.2h0.8l2.4,3.2H211.2z M214.4,306.4h-0.8l-2.4-3.2h0.8
		L214.4,306.4z M215.2,306.4l-2.4-3.2h0.8l2.4,3.2H215.2z M217.6,306.4h-0.8l-2.4-3.2h1.6L217.6,306.4z M219.2,306.4l-2.4-3.2h0.8
		l2.4,3.2H219.2z M221.6,306.4h-0.8l-2.4-3.2h0.8L221.6,306.4z M223.2,306.4l-2.4-3.2h0.8l2.4,3.2H223.2z M223.2,232.8l-0.8-1.6
		l0.8-0.8l4,5.6L223.2,232.8z M225.6,306.4h-0.8l-2.4-3.2h0.8L225.6,306.4z M237.6,249.6L224,230.4l0.8-0.8l13.6,19.2v0.8H237.6z
		 M226.4,306.4l-2.4-3.2h0.8l2.4,3.2H226.4z M237.6,246.4l-12.8-17.6l0.8-0.8l12,16.8V246.4z M230.4,233.6l-4-6.4l0.8-0.8
		L230.4,233.6L230.4,233.6z M229.6,306.4h-0.8l-2.4-3.2h0.8L229.6,306.4z M227.2,197.6l4.8,6.4L227.2,197.6L227.2,197.6z
		 M231.2,232.8l-4-6.4l0.8-0.8L231.2,232.8L231.2,232.8z M240,213.6L240,213.6l-12-16l0.8-0.8L240,213.6z M228.8,224.8l4,6.4v0.8
		L228.8,224.8L228.8,224.8z M231.2,306.4h-0.8l-2.4-3.2h0.8L231.2,306.4z M241.6,212.8L241.6,212.8L228.8,196l0.8-0.8L241.6,212.8z
		 M234.4,230.4L234.4,230.4l-4.8-6.4v-0.8L234.4,230.4z M237.6,225.6L237.6,225.6c0,0.8,0,0.8,0,1.6l-7.2-10.4c0-0.8,0-0.8,0-0.8
		L237.6,225.6z M236.8,228L236.8,228L236.8,228l-7.2-8.8v-0.8v-0.8L236.8,228z M235.2,228.8L235.2,228.8l-5.6-7.2V220L235.2,228.8z
		 M237.6,252l-8-11.2V240l8,11.2V252z M237.6,255.2l-8-11.2v-1.6l8,11.2V255.2z M237.6,256v1.6l-8-11.2v-1.6L237.6,256z
		 M237.6,259.2v1.6l-8-11.2V248L237.6,259.2z M237.6,261.6v1.6l-8-11.2v-1.6L237.6,261.6z M237.6,264.8v1.6l-8-11.2v-1.6
		L237.6,264.8z M237.6,268.8l-8-11.2V256l8,11.2V268.8z M237.6,271.2l-8-11.2v-1.6l8,11.2V271.2z M237.6,274.4l-8-11.2v-1.6l8,11.2
		V274.4z M237.6,276.8l-8-11.2V264l8,11.2V276.8z M237.6,278.4v1.6l-8-11.2v-1.6L237.6,278.4z M237.6,281.6v1.6l-8-11.2v-1.6
		L237.6,281.6z M237.6,284v1.6l-8-11.2v-1.6L237.6,284z M237.6,287.2v0.8l-8-11.2v-1.6L237.6,287.2z M237.6,291.2l-8-11.2v-1.6
		l8,11.2V291.2z M237.6,293.6l-8-11.2v-1.6l8,11.2V293.6z M244,306.4l-14.4-20.8V284L244,306.4C244.8,306.4,244.8,306.4,244,306.4z
		 M229.6,288.8v-1.6l8,12l-2.4-3.2L229.6,288.8z M229.6,289.6l1.6,3.2l-1.6-1.6V289.6z M237.6,223.2v0.8l-7.2-10.4v-0.8L237.6,223.2
		z M235.2,200.8L235.2,200.8l-4.8-5.6l0.8-0.8L235.2,200.8z M233.6,306.4h-0.8l-2.4-3.2h0.8L233.6,306.4z M237.6,220
		c0,0,0,0.8,0,1.6l-6.4-8.8c0,0,0-0.8,0.8-0.8L237.6,220z M236.8,200L236.8,200l-4.8-5.6l0.8-0.8L236.8,200z M237.6,217.6
		c0,0.8,0,0.8,0,0.8l-5.6-8c0,0,0,0,0.8-0.8L237.6,217.6z M235.2,306.4h-0.8l-2.4-3.2h0.8L235.2,306.4z M232.8,192l4.8,6.4l-0.8,0.8
		L232.8,192L232.8,192z M232.8,237.6l3.2,3.2l1.6,2.4l0,0v0.8L232.8,237.6z M238.4,216C238.4,216.8,237.6,216.8,238.4,216l-4.8-5.6
		c0,0,0,0,0.8-0.8L238.4,216z M234.4,191.2l4.8,6.4l-0.8,0.8L234.4,191.2L234.4,191.2z M239.2,214.4
		C239.2,215.2,239.2,215.2,239.2,214.4l-4.8-5.6V208L239.2,214.4z M237.6,306.4h-0.8l-2.4-3.2h0.8L237.6,306.4z M236,190.4l4,6.4
		l-0.8,0.8l-4.8-6.4l0,0h1.6V190.4z M238.4,306.4l-2.4-3.2l0,0h0.8l2.4,3.2H238.4z M236.8,190.4h0.8l3.2,4.8L240,196L236.8,190.4z
		 M237.6,294.4l3.2,3.2l5.6,8c0,0,0,0.8-0.8,0.8L237.6,294.4z M241.6,209.6c0.8,0.8,0.8,1.6,0.8,2.4l0,0l-4-6.4L241.6,209.6z
		 M240,306.4l-2.4-3.2c0,0,0.8,0,0.8-0.8l3.2,4H240z M239.2,190.4l2.4,4l0,0l0,0l-3.2-4.8h0.8V190.4z M242.4,306.4l-3.2-4.8
		c0-0.8,0-0.8,0-1.6l4.8,6.4H242.4z M241.6,190.4l0.8,0.8v0.8v0.8l-2.4-3.2C240.8,190.4,241.6,190.4,241.6,190.4z M245.6,302.4
		c0.8,0.8,0.8,1.6,0.8,1.6l-2.4-4L245.6,302.4z"/>
	<path style="fill:#F2CF3B;" d="M275.2,288.8c2.4,0,8.8,0,11.2,0l5.6-5.6c0-4.8,0-10.4,0-15.2c0.8,0,1.6,0,2.4,0c4,0,7.2-1.6,8.8-4
		c-0.8,0.8-1.6,0.8-3.2,0.8c-4,0-7.2-3.2-7.2-7.2c0-4,3.2-6.4,7.2-6.4c5.6,0,7.2,5.6,7.2,12c0,3.2,0,6.4,0,9.6c0,4.8,1.6,8,4.8,10.4
		l-8.8,9.6l9.6,9.6c-20,0-43.2,0-62.4,0l9.6-9.6l-8.8-9.6c3.2-1.6,4.8-5.6,4.8-10.4v-22.4l-5.6-4l5.6-4V220c0-4.8-1.6-8.8-4.8-10.4
		l8.8-9.6l-9.6-9.6c20,0,42.4,0,62.4,0l-9.6,9.6l8.8,8c-4,2.4-4.8,6.4-4.8,14.4c-5.6,0-8.8,0.8-10.4,4c0.8-0.8,2.4-0.8,3.2-0.8
		c4,0,6.4,3.2,6.4,6.4c0,4-3.2,7.2-6.4,7.2c-4,0-7.2-3.2-7.2-7.2v-24.8l-5.6-5.6c-2.4,0-8.8,0-11.2,0l-5.6,5.6c0,24.8,0,50.4,0,75.2
		L275.2,288.8z M255.2,304l1.6,2.4C255.2,306.4,255.2,304.8,255.2,304z M259.2,306.4h-0.8l-2.4-3.2h0.8L259.2,306.4z M260,306.4
		l-2.4-3.2h0.8l2.4,3.2H260z M262.4,306.4h-0.8l-2.4-3.2h0.8L262.4,306.4z M264,306.4l-2.4-3.2h0.8l2.4,3.2H264z M266.4,306.4h-0.8
		l-2.4-3.2h0.8L266.4,306.4z M268,306.4l-2.4-3.2h0.8l2.4,3.2H268z M270.4,306.4h-0.8l-2.4-3.2h0.8L270.4,306.4z M271.2,306.4
		l-2.4-3.2h0.8l2.4,3.2H271.2z M274.4,306.4h-0.8l-2.4-3.2h0.8L274.4,306.4z M280,219.2v1.6l-8-11.2V208L280,219.2z M280,224
		l-8-11.2v-1.6l8,11.2V224z M280,226.4l-8-11.2v-1.6l8,11.2V226.4z M280,229.6l-8-11.2v-1.6l8,11.2V229.6z M280,232l-8-11.2v-1.6
		l8,11.2V232z M280,233.6v1.6l-8-11.2v-1.6L280,233.6z M280,236v1.6l-8-11.2v-1.6L280,236z M280,239.2v1.6l-8-11.2V228L280,239.2z
		 M280,241.6v1.6l-8-11.2v-1.6L280,241.6z M280,245.6l-8-11.2v-1.6l8,11.2V245.6z M280,248.8l-8-11.2V236l8,11.2V248.8z M280,251.2
		l-8-11.2v-1.6l8,11.2V251.2z M280,254.4l-8-11.2v-1.6l8,11.2V254.4z M280,256v1.6l-8-11.2v-1.6L280,256z M280,258.4v1.6l-8-11.2
		V248L280,258.4z M280,260.8v1.6l-8-11.2v-1.6L280,260.8z M280,264v1.6l-8-11.2v-1.6L280,264z M280,268l-8-11.2V256l8,11.2V268z
		 M280,271.2l-8-11.2v-1.6l8,11.2V271.2z M280,273.6l-8-11.2v-1.6l8,11.2V273.6z M280,276.8l-8-11.2V264l8,11.2V276.8z M280,277.6
		v1.6l-8-11.2v-1.6L280,277.6z M280,280.8v1.6l-8-11.2v-1.6L280,280.8z M280,283.2v1.6l-8-11.2V272L280,283.2z M280,286.4h-0.8
		l-7.2-9.6v-1.6L280,286.4z M276.8,286.4l-4.8-7.2v-1.6l5.6,8h-0.8V286.4z M272,281.6v-0.8l2.4,3.2L272,281.6z M280,216.8v1.6
		l-7.2-10.4l0.8-0.8L280,216.8z M275.2,306.4l-2.4-3.2h0.8l2.4,3.2H275.2z M280,213.6v1.6l-5.6-8.8l0.8-0.8L280,213.6z M280,211.2
		v0.8l-4.8-6.4l0.8-0.8L280,211.2z M278.4,306.4h-0.8l-2.4-3.2h0.8L278.4,306.4z M280.8,210.4L280.8,210.4l-4.8-5.6l0.8-0.8
		L280.8,210.4z M279.2,306.4l-2.4-3.2h0.8l2.4,3.2H279.2z M281.6,209.6l-4-5.6h0.8L281.6,209.6L281.6,209.6z M282.4,306.4h-0.8
		l-2.4-3.2h0.8L282.4,306.4z M283.2,208.8L280,204h0.8L283.2,208.8L283.2,208.8z M280,285.6L280,285.6L280,285.6L280,285.6z
		 M283.2,306.4l-2.4-3.2h0.8l2.4,3.2H283.2z M284.8,207.2L284.8,207.2l-3.2-3.2h0.8L284.8,207.2z M286.4,306.4h-0.8l-2.4-3.2h0.8
		L286.4,306.4z M285.6,207.2l-2.4-3.2h0.8l2.4,3.2H285.6z M287.2,306.4l-2.4-3.2h0.8l2.4,3.2H287.2z M288.8,207.2H288l-2.4-3.2h0.8
		l1.6,1.6L288.8,207.2z M289.6,306.4h-0.8l-2.4-3.2h1.6L289.6,306.4z M291.2,306.4l-2.4-3.2h0.8l2.4,3.2H291.2z M293.6,306.4
		L293.6,306.4l-3.2-3.2h0.8L293.6,306.4z M295.2,306.4l-2.4-3.2h0.8l2.4,3.2H295.2z M297.6,306.4h-0.8l-2.4-3.2h0.8L297.6,306.4z
		 M298.4,306.4l-2.4-3.2h0.8l2.4,3.2H298.4z M301.6,306.4h-0.8l-2.4-3.2h0.8L301.6,306.4z M300,241.6
		C300,241.6,300.8,241.6,300,241.6l1.6,1.6C301.6,242.4,300.8,242.4,300,241.6z M302.4,306.4l-2.4-3.2h0.8L302.4,306.4L302.4,306.4z
		 M304.8,244.8c-0.8,0-0.8,0-1.6-0.8l-1.6-2.4h0.8L304.8,244.8z M305.6,306.4h-0.8l-2.4-3.2h0.8L305.6,306.4z M305.6,244.8l-2.4-4
		c0,0,0,0,0.8,0l3.2,4.8C306.4,244.8,306.4,244.8,305.6,244.8z M304.8,224.8L304.8,224.8L304.8,224.8L304.8,224.8z M306.4,306.4
		l-2.4-3.2h0.8l2.4,3.2L306.4,306.4L306.4,306.4z M308,244.8l-3.2-4.8c0,0,0.8,0,0.8-0.8l4,4.8C308.8,244.8,308,244.8,308,244.8z
		 M315.2,239.2l-10.4-14.4c0.8,0,0.8,0,0.8,0l9.6,13.6C316,238.4,316,238.4,315.2,239.2z M310.4,244C310.4,244,309.6,244,310.4,244
		l-4.8-5.6c0,0,0,0,0.8-0.8L310.4,244z M309.6,306.4h-0.8l-2.4-3.2h0.8L309.6,306.4z M306.4,292L306.4,292l1.6,0.8L306.4,292z
		 M312,204.8l-4-4.8l-1.6-2.4l0.8-0.8L312,204.8z M312,243.2C311.2,243.2,311.2,244,312,243.2l-4.8-5.6c0,0,0,0,0.8-0.8L312,243.2z
		 M308,252l8.8,12.8v1.6l-8.8-12c0-0.8-0.8-1.6-1.6-2.4C307.2,252,307.2,252,308,252z M314.4,299.2l-3.2-3.2l-4-5.6l0.8-0.8
		L314.4,299.2z M316,236.8l-8.8-12h0.8l8,11.2V236.8z M312.8,242.4L312.8,242.4l-5.6-6.4v-0.8L312.8,242.4z M319.2,214.4l-12-16.8
		l0.8-0.8L319.2,214.4C320,213.6,320,213.6,319.2,214.4z M315.2,240L315.2,240l-6.4-8c0-0.8,0-0.8,0-1.6L315.2,240z M311.2,306.4
		h-0.8l-2.4-3.2h0.8L311.2,306.4z M314.4,241.6C314.4,241.6,313.6,241.6,314.4,241.6l-5.6-7.2v-0.8L314.4,241.6z M320.8,306.4
		L320.8,306.4L308,289.6l0.8-0.8L320.8,306.4z M312,228c0.8,0,0.8,0.8,1.6,0.8l2.4,3.2c0,0.8,0.8,1.6,0.8,2.4l-8-10.4
		c0,0,0-0.8,0.8-0.8L312,228C312.8,228,312,228,312,228z M320.8,212.8l-12-16.8l0.8-0.8L320.8,212.8
		C321.6,212.8,320.8,212.8,320.8,212.8z M310.4,252l7.2,9.6v1.6l-8-11.2C309.6,252,309.6,252,310.4,252z M315.2,228l-6.4-8.8v-0.8
		v-0.8L315.2,228C316,227.2,316,228,315.2,228z M313.6,228l-4-6.4V220l5.6,7.2C314.4,228,313.6,228,313.6,228z M316.8,268.8l-8-11.2
		c0-0.8,0-0.8,0-1.6l8,11.2V268.8z M316.8,271.2l-8-11.2v-1.6l8,11.2V271.2z M316.8,274.4l-8-11.2v-1.6l8,11.2V274.4z M316.8,277.6
		l-8-11.2v-1.6l8,11.2C316.8,276,316.8,276.8,316.8,277.6z M317.6,279.2c0.8,1.6,1.6,3.2,3.2,4l1.6,2.4v0.8l-12-17.6v-1.6
		L317.6,279.2z M320.8,287.2L320.8,287.2L309.6,272v-1.6L320.8,287.2z M320,288.8L320,288.8l-10.4-13.6c0-0.8,0-0.8,0-1.6L320,288.8
		z M316.8,225.6v0.8l-7.2-10.4c0-0.8,0-0.8,0-0.8L316.8,225.6z M314.4,295.2l2.4,2.4l5.6,8c0,0,0,0.8-0.8,0.8l-12-17.6l0.8-0.8
		L314.4,295.2L314.4,295.2z M316.8,223.2v0.8l-7.2-10.4v-0.8L316.8,223.2z M314.4,201.6l-4.8-6.4l0.8-0.8L314.4,201.6L314.4,201.6z
		 M313.6,306.4H312l-2.4-3.2h0.8L313.6,306.4z M310.4,277.6l1.6,2.4C311.2,278.4,310.4,278.4,310.4,277.6z M316.8,220
		c0,0.8,0,0.8,0,1.6l-6.4-8.8c0,0,0-0.8,0.8-0.8L316.8,220z M315.2,293.6l-4.8-6.4l0.8-0.8L315.2,293.6L315.2,293.6z M316,200
		l-4.8-6.4l0.8-0.8L316,200L316,200z M312.8,253.6l4,5.6c0,0.8,0,0.8,0,1.6l-5.6-8C312,252.8,312.8,252.8,312.8,253.6z M316,292.8
		l-4.8-6.4l0.8-0.8L316,292.8L316,292.8z M317.6,217.6v0.8l-5.6-8c0,0,0,0,0.8-0.8L317.6,217.6z M315.2,306.4h-0.8l-2.4-3.2l0,0
		c0,0,0,0,0.8,0L315.2,306.4z M316.8,199.2l-4-6.4l0.8-0.8L316.8,199.2L316.8,199.2z M317.6,291.2l-4.8-6.4l0.8-0.8L317.6,291.2
		L317.6,291.2z M317.6,216.8l-4.8-7.2c0,0,0.8,0,0.8-0.8L317.6,216.8C317.6,216,317.6,216.8,317.6,216.8z M318.4,197.6l-4.8-6.4
		l0.8-0.8L318.4,197.6L318.4,197.6z M318.4,290.4l-4.8-6.4v-0.8L318.4,290.4L318.4,290.4z M317.6,306.4h-0.8l-2.4-3.2l0.8-0.8
		L317.6,306.4z M318.4,215.2l-4.8-6.4v-1.6L318.4,215.2C319.2,215.2,318.4,215.2,318.4,215.2z M315.2,190.4l4,6.4l-0.8,0.8l-4.8-6.4
		l0,0h1.6V190.4z M319.2,306.4h-0.8l-3.2-4.8v-0.8V300L319.2,306.4z M317.6,190.4l3.2,4.8L320,196l-4-5.6H317.6z M317.6,205.6l3.2,4
		c0.8,0.8,0.8,0.8,0.8,2.4L317.6,205.6z M319.2,190.4l2.4,4l0,0l0,0l-3.2-4.8h0.8V190.4z M320,300.8l1.6,1.6
		c0.8,0.8,0.8,1.6,0.8,1.6L320,300.8z M320,190.4c0.8,0,0.8,0,1.6,0.8l0.8,0.8v0.8v0.8L320,190.4z"/>
	<path style="fill:#F2CF3B;" d="M349.6,198.4v84l5.6,5.6c2.4,0,8.8,0,11.2,0l5.6-5.6v-84l-9.6-9.6c11.2,0,22.4,0,32.8,0l-9.6,9.6
		v42.4l5.6,4l-5.6,4V272c0,4.8,1.6,8,4.8,10.4l-8.8,9.6l9.6,9.6c-20,0-43.2,0-62.4,0l9.6-9.6l-8.8-9.6c3.2-1.6,4.8-5.6,4.8-10.4
		v-23.2l-4.8-4l4.8-4v-42.4l-9.6-9.6c11.2,0,22.4,0,32.8,0L349.6,198.4z M335.2,304l1.6,2.4C335.2,306.4,335.2,304.8,335.2,304z
		 M338.4,306.4h-0.8l-2.4-3.2h0.8L338.4,306.4z M340,306.4l-2.4-3.2h0.8l2.4,3.2H340z M342.4,306.4h-0.8l-2.4-3.2h0.8L342.4,306.4z
		 M343.2,306.4l-2.4-3.2h0.8l2.4,3.2H343.2z M346.4,306.4h-0.8l-2.4-3.2h0.8L346.4,306.4z M347.2,306.4l-2.4-3.2h0.8l2.4,3.2H347.2z
		 M350.4,306.4h-0.8l-2.4-3.2h0.8L350.4,306.4z M351.2,306.4l-2.4-3.2h0.8l2.4,3.2H351.2z M354.4,306.4h-0.8l-2.4-3.2h0.8
		L354.4,306.4z M359.2,212.8l-8-11.2V200l8,11.2V212.8z M359.2,215.2l-8-11.2v-1.6l8,11.2V215.2z M359.2,216.8v1.6l-8-11.2v-1.6
		L359.2,216.8z M359.2,219.2v1.6l-8-11.2V208L359.2,219.2z M359.2,222.4v1.6l-8-11.2v-1.6L359.2,222.4z M359.2,224.8v1.6l-8-11.2
		v-1.6L359.2,224.8z M359.2,229.6l-8-11.2v-1.6l8,11.2V229.6z M359.2,232l-8-11.2v-1.6l8,11.2V232z M359.2,235.2L352,224v-1.6
		l8,11.2v1.6H359.2z M359.2,237.6l-8-11.2v-1.6l8,11.2V237.6z M359.2,239.2v1.6l-8-11.2V228L359.2,239.2z M359.2,241.6v1.6L352,232
		v-1.6L359.2,241.6z M359.2,244.8v1.6l-8-11.2v-1.6L359.2,244.8z M359.2,247.2v1.6l-8-11.2V236L359.2,247.2z M359.2,251.2l-8-11.2
		v-1.6l8,11.2V251.2z M359.2,254.4l-8-11.2v-1.6l8,11.2V254.4z M359.2,256.8l-8-11.2V244l8,11.2V256.8z M359.2,260l-8-11.2V248
		l8,11.2V260z M359.2,260.8v1.6l-8-11.2v-1.6L359.2,260.8z M359.2,264v1.6l-8-11.2v-1.6L359.2,264z M359.2,266.4v1.6l-8-11.2V256
		L359.2,266.4z M359.2,269.6v1.6l-8-11.2v-1.6L359.2,269.6z M359.2,273.6l-8-11.2v-1.6l8,11.2V273.6z M359.2,276.8l-8-11.2V264
		l8,11.2V276.8z M359.2,279.2l-8-11.2v-1.6l8,11.2V279.2z M359.2,282.4l-8-11.2v-1.6l8,11.2V282.4z M359.2,283.2v1.6l-8-11.2V272
		L359.2,283.2z M359.2,286.4h-0.8l-6.4-9.6v-1.6L359.2,286.4z M357.6,286.4h-0.8l-4.8-7.2v-1.6L357.6,286.4z M354.4,284l-2.4-2.4
		v-0.8L354.4,284z M359.2,209.6l-7.2-10.4l0.8-0.8l6.4,9.6L359.2,209.6L359.2,209.6z M355.2,306.4l-2.4-3.2h0.8l2.4,3.2H355.2z
		 M359.2,207.2l-6.4-8.8l0.8-0.8l5.6,8V207.2z M359.2,203.2v1.6l-4.8-7.2l0.8-0.8L359.2,203.2z M358.4,306.4h-0.8l-2.4-3.2h0.8
		L358.4,306.4z M356,195.2l4.8,6.4l-0.8,0.8L356,195.2L356,195.2z M357.6,194.4l4.8,6.4l-0.8,0.8L357.6,194.4L357.6,194.4z
		 M359.2,306.4l-2.4-3.2h0.8l2.4,3.2H359.2z M358.4,192.8l4.8,6.4l-0.8,0.8L358.4,192.8L358.4,192.8z M362.4,306.4h-0.8l-2.4-3.2
		h0.8L362.4,306.4z M360,192l4.8,6.4l-0.8,0.8L360,192L360,192z M360,285.6l0.8,0.8L360,285.6L360,285.6z M360,191.2L360,191.2
		C360.8,191.2,360.8,190.4,360,191.2l4.8,5.6l-0.8,0.8L360,191.2z M363.2,306.4l-2.4-3.2h0.8l2.4,3.2H363.2z M365.6,306.4
		L365.6,306.4l-3.2-3.2h0.8L365.6,306.4z M363.2,192.8l3.2,3.2l-0.8,0.8L363.2,192.8z M367.2,306.4l-2.4-3.2h0.8l2.4,3.2H367.2z
		 M369.6,306.4h-0.8l-2.4-3.2h1.6L369.6,306.4z M370.4,306.4l-2.4-3.2h0.8l2.4,3.2H370.4z M373.6,306.4L373.6,306.4l-3.2-3.2h0.8
		L373.6,306.4z M374.4,306.4l-2.4-3.2h0.8l2.4,3.2H374.4z M377.6,306.4h-0.8l-2.4-3.2h0.8L377.6,306.4z M378.4,306.4l-2.4-3.2h0.8
		l2.4,3.2L378.4,306.4L378.4,306.4z M381.6,306.4h-0.8l-2.4-3.2h0.8L381.6,306.4z M382.4,306.4l-2.4-3.2h0.8L382.4,306.4
		L382.4,306.4z M385.6,306.4h-0.8l-2.4-3.2h0.8L385.6,306.4z M386.4,306.4l-2.4-3.2h0.8l2.4,3.2L386.4,306.4L386.4,306.4z
		 M389.6,306.4h-0.8l-2.4-3.2h0.8L389.6,306.4z M386.4,292L386.4,292l1.6,0.8L386.4,292z M393.6,299.2l-3.2-3.2l-4-5.6l0.8-0.8
		L393.6,299.2z M391.2,306.4h-0.8l-2.4-3.2h0.8L391.2,306.4z M400.8,306.4H400l-12-16.8l0.8-0.8L400.8,306.4z M396.8,212v1.6
		l-8-11.2v-1.6L396.8,212z M396.8,216l-8-11.2v-1.6l8,11.2V216z M396.8,218.4l-8-11.2v-1.6l8,11.2V218.4z M396.8,221.6l-8-11.2v-1.6
		l8,11.2V221.6z M396.8,224l-8-11.2v-1.6l8,11.2V224z M396.8,225.6v1.6l-8-11.2v-1.6L396.8,225.6z M396.8,228.8v1.6l-8-11.2v-1.6
		L396.8,228.8z M396.8,231.2v1.6l-8-11.2V220L396.8,231.2z M396.8,234.4v1.6l-8-11.2v-1.6L396.8,234.4z M396.8,238.4l-8-11.2v-1.6
		l8,11.2V238.4z M396.8,240.8l-8-11.2V228l8,11.2V240.8z M396.8,243.2l1.6,0.8l4,5.6c0,0,0,0.8-0.8,0.8l-12-17.6v-1.6l8,11.2v0.8
		H396.8z M400,251.2L388.8,236v-1.6L400,251.2L400,251.2z M399.2,251.2L399.2,251.2l-4.8-5.6c0-0.8,0-1.6-0.8-2.4l-1.6-0.8l-2.4-4
		v-1.6L399.2,251.2z M388.8,240L388.8,240L388.8,240z M396.8,261.6v1.6l-8-11.2v-1.6L396.8,261.6z M396.8,265.6l-8-11.2v-1.6l8,11.2
		V265.6z M396.8,268.8l-8-11.2V256l8,11.2V268.8z M396.8,271.2l-8-11.2v-1.6l8,11.2V271.2z M396.8,274.4l-8-11.2v-1.6l8,11.2V274.4z
		 M396.8,276c0,0.8,0,0.8,0,1.6l-8-11.2v-1.6L396.8,276z M397.6,279.2c0.8,1.6,1.6,3.2,3.2,4l1.6,2.4v0.8l-12-17.6v-1.6L397.6,279.2
		z M400.8,287.2L400.8,287.2l-12-15.2v-1.6L400.8,287.2z M400,288.8L400,288.8l-10.4-13.6c0-0.8,0-0.8,0-1.6L400,288.8z
		 M396.8,208.8v1.6l-7.2-11.2l0.8-0.8L396.8,208.8z M393.6,295.2l2.4,2.4l5.6,8c0,0,0,0.8-0.8,0.8l-12-17.6l0.8-0.8L393.6,295.2
		L393.6,295.2z M396.8,259.2v1.6l-7.2-10.4l0.8-0.8L396.8,259.2z M392.8,306.4H392l-2.4-3.2h0.8L392.8,306.4z M390.4,277.6l1.6,2.4
		C391.2,278.4,390.4,278.4,390.4,277.6z M396.8,206.4v1.6l-6.4-8.8l0.8-0.8L396.8,206.4z M395.2,293.6l-4.8-6.4l0.8-0.8L395.2,293.6
		L395.2,293.6z M396.8,256v1.6l-5.6-8.8l0.8-0.8L396.8,256z M396,292.8l-4.8-6.4l0.8-0.8L396,292.8L396,292.8z M396.8,203.2v1.6
		l-5.6-7.2l0.8-0.8L396.8,203.2z M395.2,306.4h-0.8l-2.4-3.2l0,0c0,0,0,0,0.8,0L395.2,306.4z M396.8,253.6v0.8L392,248l0.8-0.8
		L396.8,253.6z M396.8,291.2l-4.8-6.4l0.8-0.8L396.8,291.2L396.8,291.2z M397.6,201.6L397.6,201.6l-4.8-5.6l0.8-0.8L397.6,201.6z
		 M398.4,252.8L398.4,252.8l-4.8-5.6c0,0,0,0,0.8-0.8L398.4,252.8z M398.4,290.4l-4.8-6.4v-0.8L398.4,290.4L398.4,290.4z
		 M396.8,306.4H396l-2.4-3.2l0.8-0.8L396.8,306.4z M398.4,201.6l-4.8-6.4l0.8-0.8L398.4,201.6L398.4,201.6z M399.2,306.4h-0.8
		l-3.2-4.8v-0.8V300L399.2,306.4z M399.2,200l-4.8-6.4l0.8-0.8L399.2,200L399.2,200z M400.8,199.2l-4.8-6.4l0.8-0.8L400.8,199.2
		L400.8,199.2z M401.6,197.6l-4.8-6.4l0.8-0.8l0,0L401.6,197.6L401.6,197.6z M399.2,190.4l4,6.4l-0.8,0.8l-4.8-6.4
		C398.4,190.4,398.4,190.4,399.2,190.4L399.2,190.4z M400,300.8l1.6,1.6c0,0.8,0.8,0.8,0.8,1.6l0,0L400,300.8z M400.8,190.4l3.2,4.8
		l-0.8,0.8l-3.2-5.6H400.8z M400,245.6L400,245.6c1.6,0.8,1.6,1.6,1.6,2.4L400,245.6z M403.2,190.4l2.4,4l0,0l0,0l-3.2-4H403.2z
		 M404,190.4c0.8,0,1.6,1.6,1.6,2.4c0,0,0,0,0,0.8L404,190.4z"/>
</g>
<g>
</g>
<g>
</g>
<g>
</g>
<g>
</g>
<g>
</g>
<g>
</g>
<g>
</g>
<g>
</g>
<g>
</g>
<g>
</g>
<g>
</g>
<g>
</g>
<g>
</g>
<g>
</g>
<g>
</g>
</svg>
