<?xml version="1.0" encoding="iso-8859-1"?>
<!-- Generator: Adobe Illustrator 19.0.0, SVG Export Plug-In . SVG Version: 6.00 Build 0)  -->
<svg version="1.1" id="Layer_1" xmlns="http://www.w3.org/2000/svg" xmlns:xlink="http://www.w3.org/1999/xlink" x="0px" y="0px"
	 viewBox="0 0 494.463 494.463" style="enable-background:new 0 0 494.463 494.463;" xml:space="preserve">
<rect x="167.231" y="398.463" style="fill:#B51504;" width="216" height="96"/>
<polyline style="fill:#7A0600;" points="167.231,398.463 383.231,398.463 383.231,494.463 "/>
<polygon style="fill:#F79E00;" points="167.231,486.463 204.831,486.463 217.631,457.663 197.631,410.463 "/>
<polyline style="fill:#F47A00;" points="204.831,486.463 217.631,457.663 197.631,410.463 "/>
<polygon style="fill:#F79E00;" points="217.631,457.663 229.631,486.463 244.031,486.463 256.031,457.663 236.831,410.463 "/>
<polyline style="fill:#F47A00;" points="244.031,486.463 256.031,457.663 236.831,410.463 "/>
<polygon style="fill:#F79E00;" points="256.031,457.663 268.831,486.463 283.231,486.463 295.231,457.663 276.031,410.463 "/>
<polyline style="fill:#F47A00;" points="283.231,486.463 295.231,457.663 276.031,410.463 "/>
<polygon style="fill:#F79E00;" points="295.231,457.663 307.231,486.463 322.431,486.463 334.431,457.663 315.231,410.463 "/>
<polyline style="fill:#F47A00;" points="322.431,486.463 334.431,457.663 315.231,410.463 "/>
<polygon style="fill:#F79E00;" points="353.631,410.463 334.431,457.663 346.431,486.463 383.231,486.463 "/>
<polyline style="fill:#F47A00;" points="351.231,486.463 383.231,486.463 353.631,410.463 "/>
<rect x="159.231" y="390.463" style="fill:#F79E00;" width="240" height="16"/>
<polyline style="fill:#F47A00;" points="159.231,390.463 399.231,390.463 399.231,406.463 "/>
<polygon style="fill:#FCC265;" points="107.231,247.263 109.631,305.663 131.231,251.263 "/>
<polygon style="fill:#F79E00;" points="116.031,256.063 109.631,305.663 131.231,251.263 "/>
<g>
	<polygon style="fill:#1A3B47;" points="231.231,390.463 201.631,390.463 170.431,262.463 231.231,280.063 	"/>
	<polygon style="fill:#1A3B47;" points="295.231,390.463 320.031,390.463 353.631,262.463 295.231,280.063 	"/>
	<path style="fill:#1A3B47;" d="M228.831,55.263c13.6,48.8-28.8,133.6-60,142.4c-31.2,8.8-68-23.2-81.6-72s0-96,31.2-104.8
		C149.631,11.263,215.231,6.463,228.831,55.263z"/>
</g>
<path style="fill:#5D91A8;" d="M424.031,192.063c-20,124.8-64.8,104-144.8,104s-144.8-25.6-144.8-104s64.8-142.4,144.8-142.4
	S436.031,114.463,424.031,192.063z"/>
<path style="fill:#44768C;" d="M424.031,192.063c-20,124.8-64.8,104-144.8,104s-144.8-25.6-144.8-104"/>
<g>
	<ellipse style="fill:#5D91A8;" cx="156.031" cy="160.863" rx="76.8" ry="96.8"/>
	<path style="fill:#5D91A8;" d="M88.031,192.863l59.2,3.2c0,4.8,0.8,9.6,0,14.4c-3.2,52.8-44,93.6-95.2,99.2l-0.8-11.2
		C81.631,273.663,96.831,232.863,88.031,192.863z"/>
</g>
<g>
	<path style="fill:#44768C;" d="M146.431,210.463c-2.4,52.8-43.2,93.6-94.4,99.2"/>
	
		<rect x="195.225" y="78.447" transform="matrix(-0.7071 0.7071 -0.7071 -0.7071 571.835 119.2294)" style="fill:#44768C;" width="131.999" height="199.198"/>
</g>
<path style="fill:#B51504;" d="M404.831,113.663c-26.4-38.4-76-64-125.6-64c-18.4,0-35.2,3.2-51.2,9.6l-39.2,39.2l115.2,116
	L404.831,113.663z"/>
<path style="fill:#910A00;" d="M304.031,214.463l100.8-100.8c-26.4-38.4-76-64-125.6-64"/>
<path style="fill:#F79E00;" d="M279.231,49.663c-16.8,0-33.6,3.2-48.8,8.8l-20,20l93.6,93.6l80.8-80.8
	C356.831,65.663,318.431,49.663,279.231,49.663z"/>
<path style="fill:#F46E00;" d="M304.031,172.063l80.8-80.8c-28-25.6-66.4-41.6-105.6-41.6"/>
<path style="fill:#44768C;" d="M418.431,217.663l-40,2.4c0,3.2,0,6.4,0,9.6c2.4,36,29.6,64,64,68l0.8-7.2
	C422.431,272.863,412.031,244.863,418.431,217.663z"/>
<path style="fill:#5D91A8;" d="M261.631,46.463c9.6,49.6-40,130.4-72,136.8c-32,6.4-65.6-28.8-75.2-79.2c-9.6-49.6,8-95.2,40-101.6
	C186.431-3.137,252.031-3.137,261.631,46.463z"/>
<circle style="fill:#00233F;" cx="111.231" cy="185.663" r="8"/>
<polygon style="fill:#FCC265;" points="132.831,247.263 135.231,305.663 156.831,251.263 "/>
<polygon style="fill:#F79E00;" points="141.631,256.063 135.231,305.663 156.831,251.263 "/>
<g>
	<polygon style="fill:#44768C;" points="271.231,390.463 240.031,390.463 209.631,262.463 271.231,280.063 	"/>
	<polygon style="fill:#44768C;" points="335.231,390.463 360.831,390.463 394.431,262.463 335.231,280.063 	"/>
</g>
<g>
	<path style="fill:#8AB8C4;" d="M121.631,60.063c-5.6,36.8,0,68,12,69.6c12,1.6,26.4-26.4,32-63.2s-2.4-48-15.2-49.6
		C138.431,15.263,127.231,24.063,121.631,60.063z"/>
	
		<ellipse transform="matrix(0.9569 -0.2903 0.2903 0.9569 -27.7308 125.3468)" style="fill:#8AB8C4;" cx="408.606" cy="156.138" rx="8" ry="28.799"/>
	
		<ellipse transform="matrix(-0.1567 0.9876 -0.9876 -0.1567 250.3127 63.0598)" style="fill:#8AB8C4;" cx="98.235" cy="138.394" rx="26.399" ry="8.8"/>
</g>
<g>
</g>
<g>
</g>
<g>
</g>
<g>
</g>
<g>
</g>
<g>
</g>
<g>
</g>
<g>
</g>
<g>
</g>
<g>
</g>
<g>
</g>
<g>
</g>
<g>
</g>
<g>
</g>
<g>
</g>
</svg>
