<?xml version="1.0" encoding="iso-8859-1"?>
<!-- Generator: Adobe Illustrator 19.0.0, SVG Export Plug-In . SVG Version: 6.00 Build 0)  -->
<svg version="1.1" id="Layer_1" xmlns="http://www.w3.org/2000/svg" xmlns:xlink="http://www.w3.org/1999/xlink" x="0px" y="0px"
	 viewBox="0 0 502.051 502.051" style="enable-background:new 0 0 502.051 502.051;" xml:space="preserve">
<path style="fill:#0F597A;" d="M439.642,442.64L439.642,442.64L439.642,442.64c32.8-17.6,62.4-36,62.4-68c0.8-55.2-52-67.2-68-114.4
	v-1.6l0,0v1.6L439.642,442.64z"/>
<path style="fill:#0D415E;" d="M451.642,440.24L451.642,440.24L451.642,440.24c3.2-38.4,2.4-71.2-24-88.8
	c-46.4-30.4-82.4,5.6-133.6-1.6l0,0v0.8l0,0L451.642,440.24z"/>
<path style="fill:#0F597A;" d="M201.242,224.24c16,13.6,47.2-1.6-29.6,92.8s-152,160-168,146.4s20.8-108.8,108.8-194.4
	C199.642,184.24,185.242,211.44,201.242,224.24z"/>
<g>
	<path style="fill:#0E91AF;" d="M209.242,205.04c-20,23.2-59.2,22.4-87.2-1.6s-44-76.8-14.4-86.4c-14.4,4.8,65.6-17.6,93.6,6.4
		C229.242,148.24,229.242,181.84,209.242,205.04z"/>
	<path style="fill:#0E91AF;" d="M251.642,321.84c-26.4-45.6-35.2-104.8-28.8-149.6c-112.8-20-92-36.8-131.2,108
		c-23.2,84-15.2,182.4,89.6,208.8c90.4,22.4,264-11.2,300.8-75.2C406.842,453.04,304.442,412.24,251.642,321.84z"/>
</g>
<path style="fill:#00233F;" d="M114.842,121.04c0,8-6.4,15.2-13.6,15.2s-13.6-6.4-13.6-15.2c0-8,6.4-4,13.6-4
	C108.442,117.84,114.842,113.04,114.842,121.04z"/>
<path style="fill:#057091;" d="M285.242,495.44l-144-144l-53.6,53.6c12,39.2,40,71.2,93.6,84.8
	C210.042,497.04,246.842,498.64,285.242,495.44z"/>
<path style="fill:#0E91AF;" d="M146.842,327.44c20.8,10.4,49.6-5.6,16,62.4s-77.6,114.4-98.4,104s-10.4-73.6,23.2-141.6
	S126.042,317.04,146.842,327.44z"/>
<g>
	<circle style="fill:#0F597A;" cx="114.842" cy="144.24" r="3.2"/>
	<circle style="fill:#0F597A;" cx="126.042" cy="154.64" r="3.2"/>
	<circle style="fill:#0F597A;" cx="110.042" cy="159.44" r="3.2"/>
</g>
<g>
	
		<ellipse transform="matrix(0.4286 -0.9035 0.9035 0.4286 -292.664 308.9694)" style="fill:#1AB9D3;" cx="97.938" cy="385.863" rx="61.6" ry="12.8"/>
	
		<ellipse transform="matrix(0.2313 -0.9729 0.9729 0.2313 -155.4298 303.0132)" style="fill:#1AB9D3;" cx="114.034" cy="249.864" rx="44.001" ry="7.2"/>
	
		<ellipse transform="matrix(0.2319 -0.9727 0.9727 0.2319 -230.1072 337.6699)" style="fill:#1AB9D3;" cx="98.765" cy="314.543" rx="12" ry="6.4"/>
</g>
<circle style="fill:#E0A617;" cx="73.242" cy="68.24" r="63.2"/>
<path style="fill:#DD7B19;" d="M134.842,53.04c8,34.4-12.8,68.8-46.4,76.8c-34.4,8-68.8-12.8-76.8-46.4"/>
<ellipse transform="matrix(-0.2353 -0.9719 0.9719 -0.2353 24.3149 155.4502)" style="fill:#F2CF3B;" cx="73.311" cy="68.16" rx="63.199" ry="44.799"/>
<path style="fill:#E0B70B;" d="M116.442,57.04c8,34.4-4.8,66.4-28.8,72s-50.4-16.8-58.4-51.2"/>
<ellipse transform="matrix(-0.2354 -0.9719 0.9719 -0.2354 24.3225 155.4545)" style="fill:#E0A617;" cx="73.31" cy="68.16" rx="63.2" ry="20.8"/>
<path style="fill:#DD7B19;" d="M92.442,63.44c8,34.4,6.4,64-4.8,66.4c-11.2,2.4-26.4-23.2-34.4-56.8"/>
<g>
	<ellipse style="fill:#1AB9D3;" cx="145.242" cy="121.84" rx="16.8" ry="4"/>
	
		<ellipse transform="matrix(-0.1683 -0.9857 0.9857 -0.1683 46.98 336.019)" style="fill:#1AB9D3;" cx="165.245" cy="148.19" rx="6.4" ry="16.799"/>
</g>
<circle style="fill:#00233F;" cx="162.842" cy="137.04" r="8"/>
<circle style="fill:#0A3856;" cx="161.242" cy="134.64" r="4.8"/>
<g>
	<circle style="fill:#1AB9D3;" cx="198.842" cy="305.04" r="8.8"/>
	<circle style="fill:#1AB9D3;" cx="191.642" cy="284.24" r="4.8"/>
	<circle style="fill:#1AB9D3;" cx="185.242" cy="269.04" r="1.6"/>
</g>
<g>
	<circle style="fill:#057091;" cx="200.442" cy="353.04" r="6.4"/>
	<circle style="fill:#057091;" cx="222.042" cy="369.84" r="3.2"/>
	<circle style="fill:#057091;" cx="206.042" cy="273.04" r="3.2"/>
</g>
<polygon style="fill:#E29524;" points="226.042,226.64 100.442,226.64 108.442,202.64 222.842,202.64 "/>
<polyline style="fill:#E07127;" points="114.042,202.64 222.842,202.64 226.042,226.64 "/>
<g>
</g>
<g>
</g>
<g>
</g>
<g>
</g>
<g>
</g>
<g>
</g>
<g>
</g>
<g>
</g>
<g>
</g>
<g>
</g>
<g>
</g>
<g>
</g>
<g>
</g>
<g>
</g>
<g>
</g>
</svg>
